<?xml version="1.0" encoding="utf-8" standalone="no"?>
<!DOCTYPE svg PUBLIC "-//W3C//DTD SVG 1.1//EN"
  "http://www.w3.org/Graphics/SVG/1.1/DTD/svg11.dtd">
<svg xmlns:xlink="http://www.w3.org/1999/xlink" width="864pt" height="360pt" viewBox="0 0 864 360" xmlns="http://www.w3.org/2000/svg" version="1.1">
 <metadata>
  <rdf:RDF xmlns:dc="http://purl.org/dc/elements/1.1/" xmlns:cc="http://creativecommons.org/ns#" xmlns:rdf="http://www.w3.org/1999/02/22-rdf-syntax-ns#">
   <cc:Work>
    <dc:type rdf:resource="http://purl.org/dc/dcmitype/StillImage"/>
    <dc:date>2024-07-01T08:13:26.285332</dc:date>
    <dc:format>image/svg+xml</dc:format>
    <dc:creator>
     <cc:Agent>
      <dc:title>Matplotlib v3.9.0, https://matplotlib.org/</dc:title>
     </cc:Agent>
    </dc:creator>
   </cc:Work>
  </rdf:RDF>
 </metadata>
 <defs>
  <style type="text/css">*{stroke-linejoin: round; stroke-linecap: butt}</style>
 </defs>
 <g id="figure_1">
  <g id="patch_1">
   <path d="M 0 360 
L 864 360 
L 864 0 
L 0 0 
L 0 360 
z
" style="fill: none; opacity: 0"/>
  </g>
  <g id="axes_1">
   <g id="patch_2">
    <path d="M 108 320.4 
L 777.6 320.4 
L 777.6 43.2 
L 108 43.2 
L 108 320.4 
z
" style="fill: none; opacity: 0"/>
   </g>
   <g id="matplotlib.axis_1">
    <g id="xtick_1">
     <g id="line2d_1">
      <path d="M 160.561586 320.4 
L 160.561586 43.2 
" clip-path="url(#p6fab8034e4)" style="fill: none; stroke-dasharray: 5.12,1.28,0.8,1.28; stroke-dashoffset: 0; stroke: #b0b0b0; stroke-width: 0.8"/>
     </g>
     <g id="line2d_2">
      <defs>
       <path id="m9d29f79870" d="M 0 0 
L 0 3.5 
" style="stroke: #a9a9a9; stroke-width: 0.8"/>
      </defs>
      <g>
       <use xlink:href="#m9d29f79870" x="160.561586" y="320.4" style="fill: #a9a9a9; stroke: #a9a9a9; stroke-width: 0.8"/>
      </g>
     </g>
     <g id="text_1">
      <!-- 2021-09 -->
      <g style="fill: #a9a9a9" transform="translate(139.67018 334.998438) scale(0.1 -0.1)">
       <defs>
        <path id="DejaVuSans-32" d="M 1228 531 
L 3431 531 
L 3431 0 
L 469 0 
L 469 531 
Q 828 903 1448 1529 
Q 2069 2156 2228 2338 
Q 2531 2678 2651 2914 
Q 2772 3150 2772 3378 
Q 2772 3750 2511 3984 
Q 2250 4219 1831 4219 
Q 1534 4219 1204 4116 
Q 875 4013 500 3803 
L 500 4441 
Q 881 4594 1212 4672 
Q 1544 4750 1819 4750 
Q 2544 4750 2975 4387 
Q 3406 4025 3406 3419 
Q 3406 3131 3298 2873 
Q 3191 2616 2906 2266 
Q 2828 2175 2409 1742 
Q 1991 1309 1228 531 
z
" transform="scale(0.015625)"/>
        <path id="DejaVuSans-30" d="M 2034 4250 
Q 1547 4250 1301 3770 
Q 1056 3291 1056 2328 
Q 1056 1369 1301 889 
Q 1547 409 2034 409 
Q 2525 409 2770 889 
Q 3016 1369 3016 2328 
Q 3016 3291 2770 3770 
Q 2525 4250 2034 4250 
z
M 2034 4750 
Q 2819 4750 3233 4129 
Q 3647 3509 3647 2328 
Q 3647 1150 3233 529 
Q 2819 -91 2034 -91 
Q 1250 -91 836 529 
Q 422 1150 422 2328 
Q 422 3509 836 4129 
Q 1250 4750 2034 4750 
z
" transform="scale(0.015625)"/>
        <path id="DejaVuSans-31" d="M 794 531 
L 1825 531 
L 1825 4091 
L 703 3866 
L 703 4441 
L 1819 4666 
L 2450 4666 
L 2450 531 
L 3481 531 
L 3481 0 
L 794 0 
L 794 531 
z
" transform="scale(0.015625)"/>
        <path id="DejaVuSans-2d" d="M 313 2009 
L 1997 2009 
L 1997 1497 
L 313 1497 
L 313 2009 
z
" transform="scale(0.015625)"/>
        <path id="DejaVuSans-39" d="M 703 97 
L 703 672 
Q 941 559 1184 500 
Q 1428 441 1663 441 
Q 2288 441 2617 861 
Q 2947 1281 2994 2138 
Q 2813 1869 2534 1725 
Q 2256 1581 1919 1581 
Q 1219 1581 811 2004 
Q 403 2428 403 3163 
Q 403 3881 828 4315 
Q 1253 4750 1959 4750 
Q 2769 4750 3195 4129 
Q 3622 3509 3622 2328 
Q 3622 1225 3098 567 
Q 2575 -91 1691 -91 
Q 1453 -91 1209 -44 
Q 966 3 703 97 
z
M 1959 2075 
Q 2384 2075 2632 2365 
Q 2881 2656 2881 3163 
Q 2881 3666 2632 3958 
Q 2384 4250 1959 4250 
Q 1534 4250 1286 3958 
Q 1038 3666 1038 3163 
Q 1038 2656 1286 2365 
Q 1534 2075 1959 2075 
z
" transform="scale(0.015625)"/>
       </defs>
       <use xlink:href="#DejaVuSans-32"/>
       <use xlink:href="#DejaVuSans-30" x="63.623047"/>
       <use xlink:href="#DejaVuSans-32" x="127.246094"/>
       <use xlink:href="#DejaVuSans-31" x="190.869141"/>
       <use xlink:href="#DejaVuSans-2d" x="254.492188"/>
       <use xlink:href="#DejaVuSans-30" x="290.576172"/>
       <use xlink:href="#DejaVuSans-39" x="354.199219"/>
      </g>
     </g>
    </g>
    <g id="xtick_2">
     <g id="line2d_3">
      <path d="M 229.77382 320.4 
L 229.77382 43.2 
" clip-path="url(#p6fab8034e4)" style="fill: none; stroke-dasharray: 5.12,1.28,0.8,1.28; stroke-dashoffset: 0; stroke: #b0b0b0; stroke-width: 0.8"/>
     </g>
     <g id="line2d_4">
      <g>
       <use xlink:href="#m9d29f79870" x="229.77382" y="320.4" style="fill: #a9a9a9; stroke: #a9a9a9; stroke-width: 0.8"/>
      </g>
     </g>
     <g id="text_2">
      <!-- 2022-01 -->
      <g style="fill: #a9a9a9" transform="translate(208.882414 334.998438) scale(0.1 -0.1)">
       <use xlink:href="#DejaVuSans-32"/>
       <use xlink:href="#DejaVuSans-30" x="63.623047"/>
       <use xlink:href="#DejaVuSans-32" x="127.246094"/>
       <use xlink:href="#DejaVuSans-32" x="190.869141"/>
       <use xlink:href="#DejaVuSans-2d" x="254.492188"/>
       <use xlink:href="#DejaVuSans-30" x="290.576172"/>
       <use xlink:href="#DejaVuSans-31" x="354.199219"/>
      </g>
     </g>
    </g>
    <g id="xtick_3">
     <g id="line2d_5">
      <path d="M 297.851428 320.4 
L 297.851428 43.2 
" clip-path="url(#p6fab8034e4)" style="fill: none; stroke-dasharray: 5.12,1.28,0.8,1.28; stroke-dashoffset: 0; stroke: #b0b0b0; stroke-width: 0.8"/>
     </g>
     <g id="line2d_6">
      <g>
       <use xlink:href="#m9d29f79870" x="297.851428" y="320.4" style="fill: #a9a9a9; stroke: #a9a9a9; stroke-width: 0.8"/>
      </g>
     </g>
     <g id="text_3">
      <!-- 2022-05 -->
      <g style="fill: #a9a9a9" transform="translate(276.960021 334.998438) scale(0.1 -0.1)">
       <defs>
        <path id="DejaVuSans-35" d="M 691 4666 
L 3169 4666 
L 3169 4134 
L 1269 4134 
L 1269 2991 
Q 1406 3038 1543 3061 
Q 1681 3084 1819 3084 
Q 2600 3084 3056 2656 
Q 3513 2228 3513 1497 
Q 3513 744 3044 326 
Q 2575 -91 1722 -91 
Q 1428 -91 1123 -41 
Q 819 9 494 109 
L 494 744 
Q 775 591 1075 516 
Q 1375 441 1709 441 
Q 2250 441 2565 725 
Q 2881 1009 2881 1497 
Q 2881 1984 2565 2268 
Q 2250 2553 1709 2553 
Q 1456 2553 1204 2497 
Q 953 2441 691 2322 
L 691 4666 
z
" transform="scale(0.015625)"/>
       </defs>
       <use xlink:href="#DejaVuSans-32"/>
       <use xlink:href="#DejaVuSans-30" x="63.623047"/>
       <use xlink:href="#DejaVuSans-32" x="127.246094"/>
       <use xlink:href="#DejaVuSans-32" x="190.869141"/>
       <use xlink:href="#DejaVuSans-2d" x="254.492188"/>
       <use xlink:href="#DejaVuSans-30" x="290.576172"/>
       <use xlink:href="#DejaVuSans-35" x="354.199219"/>
      </g>
     </g>
    </g>
    <g id="xtick_4">
     <g id="line2d_7">
      <path d="M 367.630975 320.4 
L 367.630975 43.2 
" clip-path="url(#p6fab8034e4)" style="fill: none; stroke-dasharray: 5.12,1.28,0.8,1.28; stroke-dashoffset: 0; stroke: #b0b0b0; stroke-width: 0.8"/>
     </g>
     <g id="line2d_8">
      <g>
       <use xlink:href="#m9d29f79870" x="367.630975" y="320.4" style="fill: #a9a9a9; stroke: #a9a9a9; stroke-width: 0.8"/>
      </g>
     </g>
     <g id="text_4">
      <!-- 2022-09 -->
      <g style="fill: #a9a9a9" transform="translate(346.739569 334.998438) scale(0.1 -0.1)">
       <use xlink:href="#DejaVuSans-32"/>
       <use xlink:href="#DejaVuSans-30" x="63.623047"/>
       <use xlink:href="#DejaVuSans-32" x="127.246094"/>
       <use xlink:href="#DejaVuSans-32" x="190.869141"/>
       <use xlink:href="#DejaVuSans-2d" x="254.492188"/>
       <use xlink:href="#DejaVuSans-30" x="290.576172"/>
       <use xlink:href="#DejaVuSans-39" x="354.199219"/>
      </g>
     </g>
    </g>
    <g id="xtick_5">
     <g id="line2d_9">
      <path d="M 436.843209 320.4 
L 436.843209 43.2 
" clip-path="url(#p6fab8034e4)" style="fill: none; stroke-dasharray: 5.12,1.28,0.8,1.28; stroke-dashoffset: 0; stroke: #b0b0b0; stroke-width: 0.8"/>
     </g>
     <g id="line2d_10">
      <g>
       <use xlink:href="#m9d29f79870" x="436.843209" y="320.4" style="fill: #a9a9a9; stroke: #a9a9a9; stroke-width: 0.8"/>
      </g>
     </g>
     <g id="text_5">
      <!-- 2023-01 -->
      <g style="fill: #a9a9a9" transform="translate(415.951803 334.998438) scale(0.1 -0.1)">
       <defs>
        <path id="DejaVuSans-33" d="M 2597 2516 
Q 3050 2419 3304 2112 
Q 3559 1806 3559 1356 
Q 3559 666 3084 287 
Q 2609 -91 1734 -91 
Q 1441 -91 1130 -33 
Q 819 25 488 141 
L 488 750 
Q 750 597 1062 519 
Q 1375 441 1716 441 
Q 2309 441 2620 675 
Q 2931 909 2931 1356 
Q 2931 1769 2642 2001 
Q 2353 2234 1838 2234 
L 1294 2234 
L 1294 2753 
L 1863 2753 
Q 2328 2753 2575 2939 
Q 2822 3125 2822 3475 
Q 2822 3834 2567 4026 
Q 2313 4219 1838 4219 
Q 1578 4219 1281 4162 
Q 984 4106 628 3988 
L 628 4550 
Q 988 4650 1302 4700 
Q 1616 4750 1894 4750 
Q 2613 4750 3031 4423 
Q 3450 4097 3450 3541 
Q 3450 3153 3228 2886 
Q 3006 2619 2597 2516 
z
" transform="scale(0.015625)"/>
       </defs>
       <use xlink:href="#DejaVuSans-32"/>
       <use xlink:href="#DejaVuSans-30" x="63.623047"/>
       <use xlink:href="#DejaVuSans-32" x="127.246094"/>
       <use xlink:href="#DejaVuSans-33" x="190.869141"/>
       <use xlink:href="#DejaVuSans-2d" x="254.492188"/>
       <use xlink:href="#DejaVuSans-30" x="290.576172"/>
       <use xlink:href="#DejaVuSans-31" x="354.199219"/>
      </g>
     </g>
    </g>
    <g id="xtick_6">
     <g id="line2d_11">
      <path d="M 504.920817 320.4 
L 504.920817 43.2 
" clip-path="url(#p6fab8034e4)" style="fill: none; stroke-dasharray: 5.12,1.28,0.8,1.28; stroke-dashoffset: 0; stroke: #b0b0b0; stroke-width: 0.8"/>
     </g>
     <g id="line2d_12">
      <g>
       <use xlink:href="#m9d29f79870" x="504.920817" y="320.4" style="fill: #a9a9a9; stroke: #a9a9a9; stroke-width: 0.8"/>
      </g>
     </g>
     <g id="text_6">
      <!-- 2023-05 -->
      <g style="fill: #a9a9a9" transform="translate(484.02941 334.998438) scale(0.1 -0.1)">
       <use xlink:href="#DejaVuSans-32"/>
       <use xlink:href="#DejaVuSans-30" x="63.623047"/>
       <use xlink:href="#DejaVuSans-32" x="127.246094"/>
       <use xlink:href="#DejaVuSans-33" x="190.869141"/>
       <use xlink:href="#DejaVuSans-2d" x="254.492188"/>
       <use xlink:href="#DejaVuSans-30" x="290.576172"/>
       <use xlink:href="#DejaVuSans-35" x="354.199219"/>
      </g>
     </g>
    </g>
    <g id="xtick_7">
     <g id="line2d_13">
      <path d="M 574.700364 320.4 
L 574.700364 43.2 
" clip-path="url(#p6fab8034e4)" style="fill: none; stroke-dasharray: 5.12,1.28,0.8,1.28; stroke-dashoffset: 0; stroke: #b0b0b0; stroke-width: 0.8"/>
     </g>
     <g id="line2d_14">
      <g>
       <use xlink:href="#m9d29f79870" x="574.700364" y="320.4" style="fill: #a9a9a9; stroke: #a9a9a9; stroke-width: 0.8"/>
      </g>
     </g>
     <g id="text_7">
      <!-- 2023-09 -->
      <g style="fill: #a9a9a9" transform="translate(553.808958 334.998438) scale(0.1 -0.1)">
       <use xlink:href="#DejaVuSans-32"/>
       <use xlink:href="#DejaVuSans-30" x="63.623047"/>
       <use xlink:href="#DejaVuSans-32" x="127.246094"/>
       <use xlink:href="#DejaVuSans-33" x="190.869141"/>
       <use xlink:href="#DejaVuSans-2d" x="254.492188"/>
       <use xlink:href="#DejaVuSans-30" x="290.576172"/>
       <use xlink:href="#DejaVuSans-39" x="354.199219"/>
      </g>
     </g>
    </g>
    <g id="xtick_8">
     <g id="line2d_15">
      <path d="M 643.912598 320.4 
L 643.912598 43.2 
" clip-path="url(#p6fab8034e4)" style="fill: none; stroke-dasharray: 5.12,1.28,0.8,1.28; stroke-dashoffset: 0; stroke: #b0b0b0; stroke-width: 0.8"/>
     </g>
     <g id="line2d_16">
      <g>
       <use xlink:href="#m9d29f79870" x="643.912598" y="320.4" style="fill: #a9a9a9; stroke: #a9a9a9; stroke-width: 0.8"/>
      </g>
     </g>
     <g id="text_8">
      <!-- 2024-01 -->
      <g style="fill: #a9a9a9" transform="translate(623.021192 334.998438) scale(0.1 -0.1)">
       <defs>
        <path id="DejaVuSans-34" d="M 2419 4116 
L 825 1625 
L 2419 1625 
L 2419 4116 
z
M 2253 4666 
L 3047 4666 
L 3047 1625 
L 3713 1625 
L 3713 1100 
L 3047 1100 
L 3047 0 
L 2419 0 
L 2419 1100 
L 313 1100 
L 313 1709 
L 2253 4666 
z
" transform="scale(0.015625)"/>
       </defs>
       <use xlink:href="#DejaVuSans-32"/>
       <use xlink:href="#DejaVuSans-30" x="63.623047"/>
       <use xlink:href="#DejaVuSans-32" x="127.246094"/>
       <use xlink:href="#DejaVuSans-34" x="190.869141"/>
       <use xlink:href="#DejaVuSans-2d" x="254.492188"/>
       <use xlink:href="#DejaVuSans-30" x="290.576172"/>
       <use xlink:href="#DejaVuSans-31" x="354.199219"/>
      </g>
     </g>
    </g>
    <g id="xtick_9">
     <g id="line2d_17">
      <path d="M 712.557519 320.4 
L 712.557519 43.2 
" clip-path="url(#p6fab8034e4)" style="fill: none; stroke-dasharray: 5.12,1.28,0.8,1.28; stroke-dashoffset: 0; stroke: #b0b0b0; stroke-width: 0.8"/>
     </g>
     <g id="line2d_18">
      <g>
       <use xlink:href="#m9d29f79870" x="712.557519" y="320.4" style="fill: #a9a9a9; stroke: #a9a9a9; stroke-width: 0.8"/>
      </g>
     </g>
     <g id="text_9">
      <!-- 2024-05 -->
      <g style="fill: #a9a9a9" transform="translate(691.666113 334.998438) scale(0.1 -0.1)">
       <use xlink:href="#DejaVuSans-32"/>
       <use xlink:href="#DejaVuSans-30" x="63.623047"/>
       <use xlink:href="#DejaVuSans-32" x="127.246094"/>
       <use xlink:href="#DejaVuSans-34" x="190.869141"/>
       <use xlink:href="#DejaVuSans-2d" x="254.492188"/>
       <use xlink:href="#DejaVuSans-30" x="290.576172"/>
       <use xlink:href="#DejaVuSans-35" x="354.199219"/>
      </g>
     </g>
    </g>
   </g>
   <g id="matplotlib.axis_2">
    <g id="ytick_1">
     <g id="line2d_19">
      <path d="M 108 307.839949 
L 777.6 307.839949 
" clip-path="url(#p6fab8034e4)" style="fill: none; stroke-dasharray: 5.12,1.28,0.8,1.28; stroke-dashoffset: 0; stroke: #b0b0b0; stroke-width: 0.8"/>
     </g>
     <g id="line2d_20">
      <defs>
       <path id="m06d4f10db3" d="M 0 0 
L -3.5 0 
" style="stroke: #a9a9a9; stroke-width: 0.8"/>
      </defs>
      <g>
       <use xlink:href="#m06d4f10db3" x="108" y="307.839949" style="fill: #a9a9a9; stroke: #a9a9a9; stroke-width: 0.8"/>
      </g>
     </g>
     <g id="text_10">
      <!-- 0 -->
      <g style="fill: #a9a9a9" transform="translate(94.6375 311.639168) scale(0.1 -0.1)">
       <use xlink:href="#DejaVuSans-30"/>
      </g>
     </g>
    </g>
    <g id="ytick_2">
     <g id="line2d_21">
      <path d="M 108 275.880533 
L 777.6 275.880533 
" clip-path="url(#p6fab8034e4)" style="fill: none; stroke-dasharray: 5.12,1.28,0.8,1.28; stroke-dashoffset: 0; stroke: #b0b0b0; stroke-width: 0.8"/>
     </g>
     <g id="line2d_22">
      <g>
       <use xlink:href="#m06d4f10db3" x="108" y="275.880533" style="fill: #a9a9a9; stroke: #a9a9a9; stroke-width: 0.8"/>
      </g>
     </g>
     <g id="text_11">
      <!-- 800 -->
      <g style="fill: #a9a9a9" transform="translate(81.9125 279.679751) scale(0.1 -0.1)">
       <defs>
        <path id="DejaVuSans-38" d="M 2034 2216 
Q 1584 2216 1326 1975 
Q 1069 1734 1069 1313 
Q 1069 891 1326 650 
Q 1584 409 2034 409 
Q 2484 409 2743 651 
Q 3003 894 3003 1313 
Q 3003 1734 2745 1975 
Q 2488 2216 2034 2216 
z
M 1403 2484 
Q 997 2584 770 2862 
Q 544 3141 544 3541 
Q 544 4100 942 4425 
Q 1341 4750 2034 4750 
Q 2731 4750 3128 4425 
Q 3525 4100 3525 3541 
Q 3525 3141 3298 2862 
Q 3072 2584 2669 2484 
Q 3125 2378 3379 2068 
Q 3634 1759 3634 1313 
Q 3634 634 3220 271 
Q 2806 -91 2034 -91 
Q 1263 -91 848 271 
Q 434 634 434 1313 
Q 434 1759 690 2068 
Q 947 2378 1403 2484 
z
M 1172 3481 
Q 1172 3119 1398 2916 
Q 1625 2713 2034 2713 
Q 2441 2713 2670 2916 
Q 2900 3119 2900 3481 
Q 2900 3844 2670 4047 
Q 2441 4250 2034 4250 
Q 1625 4250 1398 4047 
Q 1172 3844 1172 3481 
z
" transform="scale(0.015625)"/>
       </defs>
       <use xlink:href="#DejaVuSans-38"/>
       <use xlink:href="#DejaVuSans-30" x="63.623047"/>
       <use xlink:href="#DejaVuSans-30" x="127.246094"/>
      </g>
     </g>
    </g>
    <g id="ytick_3">
     <g id="line2d_23">
      <path d="M 108 243.921116 
L 777.6 243.921116 
" clip-path="url(#p6fab8034e4)" style="fill: none; stroke-dasharray: 5.12,1.28,0.8,1.28; stroke-dashoffset: 0; stroke: #b0b0b0; stroke-width: 0.8"/>
     </g>
     <g id="line2d_24">
      <g>
       <use xlink:href="#m06d4f10db3" x="108" y="243.921116" style="fill: #a9a9a9; stroke: #a9a9a9; stroke-width: 0.8"/>
      </g>
     </g>
     <g id="text_12">
      <!-- 1600 -->
      <g style="fill: #a9a9a9" transform="translate(75.55 247.720335) scale(0.1 -0.1)">
       <defs>
        <path id="DejaVuSans-36" d="M 2113 2584 
Q 1688 2584 1439 2293 
Q 1191 2003 1191 1497 
Q 1191 994 1439 701 
Q 1688 409 2113 409 
Q 2538 409 2786 701 
Q 3034 994 3034 1497 
Q 3034 2003 2786 2293 
Q 2538 2584 2113 2584 
z
M 3366 4563 
L 3366 3988 
Q 3128 4100 2886 4159 
Q 2644 4219 2406 4219 
Q 1781 4219 1451 3797 
Q 1122 3375 1075 2522 
Q 1259 2794 1537 2939 
Q 1816 3084 2150 3084 
Q 2853 3084 3261 2657 
Q 3669 2231 3669 1497 
Q 3669 778 3244 343 
Q 2819 -91 2113 -91 
Q 1303 -91 875 529 
Q 447 1150 447 2328 
Q 447 3434 972 4092 
Q 1497 4750 2381 4750 
Q 2619 4750 2861 4703 
Q 3103 4656 3366 4563 
z
" transform="scale(0.015625)"/>
       </defs>
       <use xlink:href="#DejaVuSans-31"/>
       <use xlink:href="#DejaVuSans-36" x="63.623047"/>
       <use xlink:href="#DejaVuSans-30" x="127.246094"/>
       <use xlink:href="#DejaVuSans-30" x="190.869141"/>
      </g>
     </g>
    </g>
    <g id="ytick_4">
     <g id="line2d_25">
      <path d="M 108 211.961699 
L 777.6 211.961699 
" clip-path="url(#p6fab8034e4)" style="fill: none; stroke-dasharray: 5.12,1.28,0.8,1.28; stroke-dashoffset: 0; stroke: #b0b0b0; stroke-width: 0.8"/>
     </g>
     <g id="line2d_26">
      <g>
       <use xlink:href="#m06d4f10db3" x="108" y="211.961699" style="fill: #a9a9a9; stroke: #a9a9a9; stroke-width: 0.8"/>
      </g>
     </g>
     <g id="text_13">
      <!-- 2400 -->
      <g style="fill: #a9a9a9" transform="translate(75.55 215.760918) scale(0.1 -0.1)">
       <use xlink:href="#DejaVuSans-32"/>
       <use xlink:href="#DejaVuSans-34" x="63.623047"/>
       <use xlink:href="#DejaVuSans-30" x="127.246094"/>
       <use xlink:href="#DejaVuSans-30" x="190.869141"/>
      </g>
     </g>
    </g>
    <g id="ytick_5">
     <g id="line2d_27">
      <path d="M 108 180.002283 
L 777.6 180.002283 
" clip-path="url(#p6fab8034e4)" style="fill: none; stroke-dasharray: 5.12,1.28,0.8,1.28; stroke-dashoffset: 0; stroke: #b0b0b0; stroke-width: 0.8"/>
     </g>
     <g id="line2d_28">
      <g>
       <use xlink:href="#m06d4f10db3" x="108" y="180.002283" style="fill: #a9a9a9; stroke: #a9a9a9; stroke-width: 0.8"/>
      </g>
     </g>
     <g id="text_14">
      <!-- 3200 -->
      <g style="fill: #a9a9a9" transform="translate(75.55 183.801502) scale(0.1 -0.1)">
       <use xlink:href="#DejaVuSans-33"/>
       <use xlink:href="#DejaVuSans-32" x="63.623047"/>
       <use xlink:href="#DejaVuSans-30" x="127.246094"/>
       <use xlink:href="#DejaVuSans-30" x="190.869141"/>
      </g>
     </g>
    </g>
    <g id="ytick_6">
     <g id="line2d_29">
      <path d="M 108 148.042866 
L 777.6 148.042866 
" clip-path="url(#p6fab8034e4)" style="fill: none; stroke-dasharray: 5.12,1.28,0.8,1.28; stroke-dashoffset: 0; stroke: #b0b0b0; stroke-width: 0.8"/>
     </g>
     <g id="line2d_30">
      <g>
       <use xlink:href="#m06d4f10db3" x="108" y="148.042866" style="fill: #a9a9a9; stroke: #a9a9a9; stroke-width: 0.8"/>
      </g>
     </g>
     <g id="text_15">
      <!-- 4000 -->
      <g style="fill: #a9a9a9" transform="translate(75.55 151.842085) scale(0.1 -0.1)">
       <use xlink:href="#DejaVuSans-34"/>
       <use xlink:href="#DejaVuSans-30" x="63.623047"/>
       <use xlink:href="#DejaVuSans-30" x="127.246094"/>
       <use xlink:href="#DejaVuSans-30" x="190.869141"/>
      </g>
     </g>
    </g>
    <g id="ytick_7">
     <g id="line2d_31">
      <path d="M 108 116.08345 
L 777.6 116.08345 
" clip-path="url(#p6fab8034e4)" style="fill: none; stroke-dasharray: 5.12,1.28,0.8,1.28; stroke-dashoffset: 0; stroke: #b0b0b0; stroke-width: 0.8"/>
     </g>
     <g id="line2d_32">
      <g>
       <use xlink:href="#m06d4f10db3" x="108" y="116.08345" style="fill: #a9a9a9; stroke: #a9a9a9; stroke-width: 0.8"/>
      </g>
     </g>
     <g id="text_16">
      <!-- 4800 -->
      <g style="fill: #a9a9a9" transform="translate(75.55 119.882668) scale(0.1 -0.1)">
       <use xlink:href="#DejaVuSans-34"/>
       <use xlink:href="#DejaVuSans-38" x="63.623047"/>
       <use xlink:href="#DejaVuSans-30" x="127.246094"/>
       <use xlink:href="#DejaVuSans-30" x="190.869141"/>
      </g>
     </g>
    </g>
    <g id="ytick_8">
     <g id="line2d_33">
      <path d="M 108 84.124033 
L 777.6 84.124033 
" clip-path="url(#p6fab8034e4)" style="fill: none; stroke-dasharray: 5.12,1.28,0.8,1.28; stroke-dashoffset: 0; stroke: #b0b0b0; stroke-width: 0.8"/>
     </g>
     <g id="line2d_34">
      <g>
       <use xlink:href="#m06d4f10db3" x="108" y="84.124033" style="fill: #a9a9a9; stroke: #a9a9a9; stroke-width: 0.8"/>
      </g>
     </g>
     <g id="text_17">
      <!-- 5600 -->
      <g style="fill: #a9a9a9" transform="translate(75.55 87.923252) scale(0.1 -0.1)">
       <use xlink:href="#DejaVuSans-35"/>
       <use xlink:href="#DejaVuSans-36" x="63.623047"/>
       <use xlink:href="#DejaVuSans-30" x="127.246094"/>
       <use xlink:href="#DejaVuSans-30" x="190.869141"/>
      </g>
     </g>
    </g>
    <g id="ytick_9">
     <g id="line2d_35">
      <path d="M 108 52.164616 
L 777.6 52.164616 
" clip-path="url(#p6fab8034e4)" style="fill: none; stroke-dasharray: 5.12,1.28,0.8,1.28; stroke-dashoffset: 0; stroke: #b0b0b0; stroke-width: 0.8"/>
     </g>
     <g id="line2d_36">
      <g>
       <use xlink:href="#m06d4f10db3" x="108" y="52.164616" style="fill: #a9a9a9; stroke: #a9a9a9; stroke-width: 0.8"/>
      </g>
     </g>
     <g id="text_18">
      <!-- 6400 -->
      <g style="fill: #a9a9a9" transform="translate(75.55 55.963835) scale(0.1 -0.1)">
       <use xlink:href="#DejaVuSans-36"/>
       <use xlink:href="#DejaVuSans-34" x="63.623047"/>
       <use xlink:href="#DejaVuSans-30" x="127.246094"/>
       <use xlink:href="#DejaVuSans-30" x="190.869141"/>
      </g>
     </g>
    </g>
   </g>
   <g id="line2d_37">
    <path d="M 138.436364 307.720101 
L 141.840244 307.440457 
L 142.407557 307.200761 
L 144.109498 307.001015 
L 147.513378 306.321877 
L 150.917258 306.042232 
L 152.051885 305.60279 
L 152.619199 304.883703 
L 153.186512 304.484211 
L 153.753825 303.245783 
L 154.321139 303.165885 
L 154.888452 302.726443 
L 156.023079 302.167153 
L 158.292332 300.409385 
L 160.561586 299.330755 
L 162.263526 298.571718 
L 162.83084 297.692834 
L 163.965466 296.893849 
L 164.53278 296.654153 
L 170.205914 295.855168 
L 170.773227 295.575523 
L 174.744421 295.255929 
L 176.446361 294.816487 
L 181.552182 294.137349 
L 182.119495 293.817755 
L 182.686808 293.737857 
L 183.821435 293.378313 
L 187.792629 292.739125 
L 188.927256 292.419531 
L 190.629196 292.259734 
L 191.763823 292.139886 
L 192.331136 291.980089 
L 192.89845 291.94014 
L 194.60039 291.420799 
L 195.735017 291.3409 
L 196.869643 291.181103 
L 198.00427 290.941408 
L 198.571583 290.781611 
L 199.138897 290.022575 
L 200.840837 289.383386 
L 202.542777 288.943944 
L 203.110091 288.664299 
L 203.677404 288.62435 
L 206.513971 287.825365 
L 207.648598 287.745466 
L 208.215911 287.665568 
L 209.917851 287.146227 
L 212.187105 286.586937 
L 212.754418 286.347242 
L 213.321732 286.267343 
L 213.889045 285.987698 
L 219.562179 285.148763 
L 222.398746 284.349778 
L 222.966059 283.990235 
L 225.235313 283.390996 
L 227.504567 282.232467 
L 229.206507 281.832974 
L 229.77382 281.753075 
L 230.341134 281.473431 
L 231.47576 281.273684 
L 232.610387 280.754344 
L 235.446954 280.035257 
L 237.148894 279.595815 
L 238.850835 278.996576 
L 239.418148 278.916677 
L 240.552775 278.477235 
L 241.687402 278.397337 
L 242.822028 277.997844 
L 245.658595 277.558402 
L 246.225909 277.358656 
L 247.360535 277.318706 
L 249.629789 277.039062 
L 250.764416 276.479772 
L 257.572177 273.483576 
L 258.13949 272.884337 
L 259.274117 271.206468 
L 259.84143 271.046671 
L 260.408744 271.046671 
L 261.54337 270.207736 
L 262.110684 270.047939 
L 262.677997 269.768294 
L 263.245311 269.648446 
L 263.812624 269.129106 
L 264.379937 268.969309 
L 266.081877 268.170323 
L 267.216504 266.572353 
L 267.783818 266.212809 
L 268.351131 265.254027 
L 268.918444 264.654788 
L 272.322325 262.89702 
L 273.456952 262.018136 
L 274.024265 261.658592 
L 274.591578 260.819658 
L 275.158892 259.58123 
L 275.726205 258.742295 
L 276.293519 258.302854 
L 276.860832 258.063158 
L 279.130086 256.065694 
L 280.264712 255.146861 
L 280.832026 254.66747 
L 281.399339 253.908434 
L 282.533966 252.909702 
L 284.80322 251.431579 
L 285.370533 250.952188 
L 285.937846 250.83234 
L 287.072473 250.233101 
L 289.341727 249.074572 
L 290.476353 247.995942 
L 291.043667 247.316804 
L 292.178294 246.517819 
L 292.745607 246.358022 
L 293.31292 246.078377 
L 294.447547 245.319341 
L 295.014861 244.999746 
L 295.582174 244.919848 
L 299.553368 242.482942 
L 301.822621 241.284464 
L 302.389935 240.765124 
L 304.659188 240.046037 
L 305.226502 239.646544 
L 305.793815 239.526696 
L 308.063069 238.687762 
L 310.899636 237.768928 
L 311.466949 237.649081 
L 312.601576 236.650349 
L 314.303516 235.851363 
L 315.438143 235.172226 
L 316.57277 234.852632 
L 317.140083 234.493088 
L 317.707396 234.333291 
L 319.409337 233.254661 
L 322.245904 232.575523 
L 323.947844 231.576791 
L 324.515157 231.496893 
L 325.082471 231.297146 
L 326.217097 231.057451 
L 327.919038 229.779074 
L 329.620978 229.379581 
L 330.188291 229.179835 
L 330.755605 228.740393 
L 334.159485 227.621814 
L 334.726798 227.581864 
L 335.294112 227.422067 
L 336.428738 226.942676 
L 340.399932 225.544451 
L 341.534559 225.384654 
L 342.101872 225.224857 
L 342.669186 224.945212 
L 343.236499 224.825365 
L 346.073066 223.507039 
L 348.34232 222.308561 
L 352.880827 220.510843 
L 353.44814 220.430945 
L 354.582767 219.751807 
L 355.15008 219.671909 
L 357.419334 218.753075 
L 359.688588 218.393532 
L 360.823214 217.834242 
L 361.390528 217.354851 
L 361.957841 216.356119 
L 363.659781 216.036525 
L 365.929035 214.838047 
L 366.496348 214.718199 
L 371.034856 212.600888 
L 372.736796 212.241344 
L 373.871423 211.682055 
L 374.438736 211.442359 
L 375.006049 211.36246 
L 377.275303 210.363729 
L 378.977243 209.325048 
L 379.544556 209.245149 
L 380.11187 209.045403 
L 380.679183 209.005453 
L 382.948437 208.366265 
L 383.51575 208.326316 
L 384.083064 207.886874 
L 385.21769 207.487381 
L 386.919631 206.928091 
L 387.486944 206.568548 
L 388.054257 206.408751 
L 388.621571 206.009258 
L 392.025451 204.650983 
L 392.592765 204.491186 
L 393.160078 204.211541 
L 394.862018 202.893215 
L 395.429332 202.773367 
L 396.563958 201.894483 
L 397.131272 201.814585 
L 397.698585 200.935701 
L 398.265899 200.696005 
L 398.833212 200.256563 
L 399.400525 200.176665 
L 400.535152 199.497527 
L 401.102465 199.377679 
L 401.669779 199.137984 
L 402.237092 198.698542 
L 402.804406 198.498795 
L 404.506346 197.340266 
L 406.775599 196.181737 
L 407.342913 196.101839 
L 409.044853 195.262904 
L 409.612166 194.304122 
L 410.17948 193.824731 
L 410.746793 193.505136 
L 411.314107 193.385289 
L 412.448733 192.666202 
L 413.016047 192.546354 
L 414.150674 191.987064 
L 415.852614 191.267977 
L 416.987241 190.468992 
L 418.121867 189.270514 
L 419.256494 188.591376 
L 419.823808 188.231833 
L 420.391121 187.632594 
L 422.660374 186.074572 
L 423.227688 185.435384 
L 423.795001 184.995942 
L 424.929628 184.596449 
L 426.064255 183.837413 
L 427.766195 182.998478 
L 428.333508 182.91858 
L 430.035449 181.999746 
L 431.170075 181.320609 
L 436.843209 179.323145 
L 437.410523 178.843754 
L 439.679776 178.004819 
L 440.24709 177.845022 
L 440.814403 177.40558 
L 443.65097 175.887508 
L 444.785597 173.650349 
L 445.920224 172.371972 
L 447.05485 171.692834 
L 448.756791 171.013697 
L 449.324104 170.933798 
L 449.891417 170.614204 
L 452.727984 169.73532 
L 453.295298 169.495625 
L 454.429925 168.736588 
L 455.564551 168.337096 
L 458.968432 166.339632 
L 459.535745 165.740393 
L 460.670372 165.141154 
L 463.506939 163.663031 
L 466.910819 162.025111 
L 467.478133 161.905263 
L 469.180073 161.306024 
L 469.747386 161.146227 
L 472.01664 160.147495 
L 473.151267 159.708053 
L 473.71858 159.268611 
L 474.853207 158.909068 
L 478.257087 157.191249 
L 479.391714 156.312365 
L 480.526341 155.912873 
L 481.093654 155.433481 
L 481.660968 155.353583 
L 482.795594 154.514648 
L 483.930221 153.955358 
L 484.497535 153.715663 
L 485.064848 153.156373 
L 488.468728 151.917945 
L 490.170668 151.158909 
L 491.872609 150.639569 
L 493.007235 150.479772 
L 493.574549 150.240076 
L 494.141862 150.160178 
L 495.276489 149.680786 
L 495.843802 149.640837 
L 498.113056 148.801902 
L 499.814996 147.643373 
L 502.651563 146.325048 
L 505.48813 144.806975 
L 506.055444 144.687127 
L 507.757384 143.728345 
L 509.459324 143.169055 
L 510.593951 142.809512 
L 512.863204 142.090425 
L 513.997831 141.730881 
L 515.699771 141.451237 
L 517.969025 140.73215 
L 518.536338 140.492454 
L 519.103652 140.412555 
L 519.670965 140.132911 
L 520.805592 139.893215 
L 522.507532 139.293976 
L 523.642159 139.174128 
L 524.776786 138.894483 
L 526.478726 138.614838 
L 527.046039 138.455041 
L 528.180666 138.335193 
L 531.017233 137.616107 
L 532.15186 137.336462 
L 532.719173 137.016867 
L 535.55574 136.297781 
L 536.123053 136.177933 
L 538.392307 135.338998 
L 541.228874 134.500063 
L 541.796187 134.500063 
L 542.930814 134.100571 
L 543.498128 133.541281 
L 544.632754 133.101839 
L 546.334695 132.422701 
L 547.469321 132.023209 
L 548.036635 131.903361 
L 548.603948 131.543817 
L 549.171262 131.42397 
L 549.738575 131.104375 
L 552.575142 130.30539 
L 553.142455 129.945847 
L 553.709769 129.825999 
L 554.277082 129.346607 
L 555.979022 129.027013 
L 557.113649 128.427774 
L 557.680962 127.788586 
L 558.815589 127.54889 
L 563.92141 126.47026 
L 564.488723 126.47026 
L 565.056037 126.230564 
L 567.32529 125.831072 
L 567.892604 125.591376 
L 569.594544 125.35168 
L 571.863797 124.632594 
L 573.565738 124.233101 
L 575.267678 123.793659 
L 576.969618 123.274318 
L 579.806185 122.435384 
L 580.373498 122.115789 
L 582.075438 121.5565 
L 582.642752 121.117058 
L 583.777379 120.797464 
L 584.912005 120.43792 
L 586.046632 119.958529 
L 587.748572 119.199493 
L 589.450513 119.079645 
L 591.719766 118.440457 
L 592.28708 118.080913 
L 593.421706 117.761319 
L 596.258273 116.482942 
L 596.825587 116.442993 
L 603.066034 114.325682 
L 605.335288 113.766392 
L 605.902601 113.606595 
L 607.037228 113.087254 
L 607.604541 113.007356 
L 608.739168 112.687762 
L 609.306481 112.24832 
L 609.873795 111.968675 
L 610.441108 111.289537 
L 611.008422 110.890044 
L 612.143048 110.530501 
L 612.710362 110.091059 
L 618.950809 107.534306 
L 620.085436 107.254661 
L 621.787376 106.455675 
L 622.922003 105.776538 
L 623.489316 105.65669 
L 624.623943 104.977552 
L 625.191256 104.737857 
L 626.325883 104.058719 
L 628.027823 103.259734 
L 628.595137 102.860241 
L 629.729764 102.500698 
L 630.86439 101.82156 
L 631.431704 101.621814 
L 631.999017 101.222321 
L 633.133644 100.822828 
L 633.700957 100.70298 
L 635.970211 99.664299 
L 638.806778 98.665568 
L 639.941405 98.50577 
L 640.508718 98.146227 
L 641.076032 98.066328 
L 641.643345 97.866582 
L 643.345285 97.546988 
L 647.316479 95.629423 
L 647.883792 95.549524 
L 649.585732 94.630691 
L 651.854986 93.751807 
L 656.393493 91.834242 
L 657.52812 91.674445 
L 658.095433 91.314902 
L 658.662747 91.274952 
L 659.797374 90.915409 
L 660.932 90.356119 
L 661.499314 90.276221 
L 664.335881 89.157641 
L 664.903194 89.037793 
L 666.037821 88.67825 
L 666.605134 88.478503 
L 667.739761 88.278757 
L 669.441701 87.759417 
L 674.547522 85.322511 
L 675.114835 85.202663 
L 675.682149 84.883069 
L 676.249462 84.763221 
L 677.951402 83.884337 
L 678.518716 83.72454 
L 680.787969 82.64591 
L 682.489909 82.206468 
L 685.89379 80.848193 
L 687.59573 80.288903 
L 697.807371 76.05428 
L 698.941998 75.654788 
L 700.643938 74.735954 
L 701.211251 74.616107 
L 702.345878 74.176665 
L 702.913192 74.176665 
L 704.047818 73.657324 
L 704.615132 73.217882 
L 705.749759 72.139252 
L 707.451699 71.340266 
L 708.019012 71.220419 
L 708.586326 70.940774 
L 709.153639 70.860875 
L 709.720952 70.461382 
L 710.288266 70.341535 
L 711.422892 69.662397 
L 712.557519 68.94331 
L 713.692146 68.623716 
L 714.826773 68.064426 
L 716.528713 67.664933 
L 717.096026 67.465187 
L 717.66334 67.385289 
L 718.230653 67.105644 
L 718.797967 66.985796 
L 723.903787 64.908434 
L 724.471101 64.748637 
L 728.442294 62.91097 
L 729.009608 62.711224 
L 729.576921 62.631325 
L 731.846175 61.552695 
L 734.682742 60.234369 
L 735.817368 59.834876 
L 736.384682 59.355485 
L 736.951995 59.035891 
L 738.653935 58.476601 
L 739.788562 57.717565 
L 740.355876 57.677616 
L 741.490502 57.358022 
L 742.057816 57.238174 
L 744.327069 56.399239 
L 746.02901 55.879899 
L 747.163636 55.8 
L 747.163636 55.8 
" clip-path="url(#p6fab8034e4)" style="fill: none; stroke: #1f77b4; stroke-width: 1.5; stroke-linecap: square"/>
   </g>
   <g id="line2d_38">
    <path d="M 139.003677 307.8 
L 140.705617 307.720101 
L 142.407557 307.680152 
L 145.811438 307.600254 
L 148.648005 307.480406 
L 150.917258 307.480406 
L 151.484572 307.320609 
L 153.753825 307.24071 
L 155.455765 307.040964 
L 157.157706 306.881167 
L 160.561586 306.72137 
L 161.128899 306.72137 
L 161.696213 306.601522 
L 163.965466 306.521623 
L 165.100093 306.441725 
L 169.6386 306.361826 
L 172.475167 306.241978 
L 179.282928 306.16208 
L 182.119495 306.042232 
L 185.523375 305.962334 
L 187.792629 305.882435 
L 192.89845 305.802536 
L 194.60039 305.762587 
L 196.30233 305.722638 
L 198.00427 305.522892 
L 201.40815 305.482942 
L 202.542777 305.403044 
L 206.513971 305.323145 
L 212.754418 304.963602 
L 216.725612 304.883703 
L 217.860239 304.803805 
L 219.562179 304.723906 
L 222.966059 304.564109 
L 225.235313 304.52416 
L 226.937253 304.364363 
L 234.312327 303.924921 
L 237.148894 303.845022 
L 242.254715 303.565377 
L 243.956655 303.485479 
L 249.629789 303.165885 
L 255.870236 303.085986 
L 258.13949 302.84629 
L 259.274117 302.766392 
L 266.649191 302.167153 
L 270.053071 301.727711 
L 272.322325 301.647812 
L 276.860832 301.048573 
L 280.264712 300.968675 
L 281.966653 300.808878 
L 283.101279 300.768928 
L 284.235906 300.649081 
L 285.937846 300.569182 
L 287.072473 300.409385 
L 289.90904 300.089791 
L 292.178294 300.009892 
L 293.31292 299.929994 
L 295.582174 299.850095 
L 296.716801 299.770197 
L 299.553368 299.490552 
L 300.120681 299.330755 
L 303.524562 299.170958 
L 306.361129 299.091059 
L 313.736203 298.651617 
L 315.438143 298.571718 
L 322.813217 298.132276 
L 326.784411 298.052378 
L 327.351724 297.93253 
L 331.890231 297.852632 
L 335.861425 297.652885 
L 342.101872 297.572987 
L 346.073066 297.37324 
L 350.611573 297.293342 
L 355.15008 297.053646 
L 359.121274 296.973748 
L 369.900229 296.29461 
L 374.438736 296.214711 
L 380.11187 295.895117 
L 381.246497 295.855168 
L 383.51575 295.615472 
L 389.188884 295.295878 
L 392.592765 295.21598 
L 394.294705 295.17603 
L 395.996645 295.136081 
L 397.698585 294.976284 
L 402.237092 294.896386 
L 403.371719 294.736588 
L 404.506346 294.65669 
L 407.342913 294.536842 
L 408.47754 294.456944 
L 409.612166 294.377045 
L 414.717987 294.297146 
L 415.852614 294.177299 
L 418.121867 294.137349 
L 418.689181 294.017502 
L 419.823808 293.937603 
L 420.391121 293.817755 
L 422.093061 293.737857 
L 427.198882 293.458212 
L 428.333508 293.418263 
L 430.035449 293.258465 
L 431.737389 293.218516 
L 433.439329 293.138618 
L 436.275896 293.01877 
L 444.218283 292.938871 
L 448.189477 292.739125 
L 452.727984 292.659226 
L 454.997238 292.579328 
L 457.266492 292.539379 
L 458.401118 292.419531 
L 460.670372 292.339632 
L 466.343506 292.020038 
L 469.747386 291.980089 
L 471.449326 291.820292 
L 473.151267 291.780342 
L 477.12246 291.700444 
L 479.391714 291.620545 
L 486.199475 291.540647 
L 489.036042 291.420799 
L 492.439922 291.3409 
L 494.141862 291.141154 
L 497.545743 291.101205 
L 499.247683 290.941408 
L 501.516936 290.861509 
L 508.324697 290.781611 
L 511.161264 290.661763 
L 520.805592 290.621814 
L 521.940219 290.541915 
L 523.642159 290.501966 
L 531.017233 290.422067 
L 532.15186 290.342169 
L 538.392307 290.26227 
L 540.661561 290.182372 
L 547.469321 290.142422 
L 548.603948 290.062524 
L 557.113649 290.022575 
L 558.815589 289.862777 
L 572.998424 289.782879 
L 574.700364 289.74293 
L 590.017826 289.663031 
L 592.28708 289.583133 
L 601.931407 289.503234 
L 603.066034 289.423335 
L 605.902601 289.343437 
L 607.604541 289.18364 
L 610.441108 289.103741 
L 612.710362 289.023843 
L 616.114242 288.943944 
L 617.816182 288.903995 
L 620.085436 288.824096 
L 621.787376 288.784147 
L 624.623943 288.704249 
L 625.75857 288.62435 
L 629.16245 288.544451 
L 631.999017 288.424604 
L 633.133644 288.384654 
L 634.268271 288.304756 
L 635.970211 288.264807 
L 638.239465 288.184908 
L 640.508718 288.10501 
L 647.883792 288.025111 
L 650.153046 287.945212 
L 654.691553 287.865314 
L 658.662747 287.665568 
L 663.768567 287.585669 
L 664.903194 287.50577 
L 675.114835 287.425872 
L 676.816775 287.385923 
L 679.653342 287.345973 
L 681.922596 287.106278 
L 683.624536 287.066328 
L 687.028417 286.98643 
L 692.70155 286.666836 
L 695.538117 286.586937 
L 697.807371 286.507039 
L 701.211251 286.467089 
L 702.345878 286.387191 
L 704.615132 286.307292 
L 706.884385 286.067597 
L 709.153639 285.987698 
L 713.124833 285.9078 
L 713.692146 285.787952 
L 718.797967 285.708053 
L 721.634534 285.588205 
L 729.009608 285.548256 
L 729.576921 285.428408 
L 732.980801 285.34851 
L 735.250055 285.268611 
L 738.653935 285.188713 
L 740.923189 285.108814 
L 747.163636 285.108814 
L 747.163636 285.108814 
" clip-path="url(#p6fab8034e4)" style="fill: none; stroke: #ff7f0e; stroke-width: 1.5; stroke-linecap: square"/>
   </g>
   <g id="patch_3">
    <path d="M 108 320.4 
L 108 43.2 
" style="fill: none; stroke: #a9a9a9; stroke-width: 0.8; stroke-linejoin: miter; stroke-linecap: square"/>
   </g>
   <g id="patch_4">
    <path d="M 777.6 320.4 
L 777.6 43.2 
" style="fill: none"/>
   </g>
   <g id="patch_5">
    <path d="M 108 320.4 
L 777.6 320.4 
" style="fill: none; stroke: #a9a9a9; stroke-width: 0.8; stroke-linejoin: miter; stroke-linecap: square"/>
   </g>
   <g id="patch_6">
    <path d="M 108 43.2 
L 777.6 43.2 
" style="fill: none"/>
   </g>
   <g id="text_19">
    <!-- get_subscribe history -->
    <g style="fill: #a9a9a9" transform="translate(378.6075 37.2) scale(0.12 -0.12)">
     <defs>
      <path id="DejaVuSans-67" d="M 2906 1791 
Q 2906 2416 2648 2759 
Q 2391 3103 1925 3103 
Q 1463 3103 1205 2759 
Q 947 2416 947 1791 
Q 947 1169 1205 825 
Q 1463 481 1925 481 
Q 2391 481 2648 825 
Q 2906 1169 2906 1791 
z
M 3481 434 
Q 3481 -459 3084 -895 
Q 2688 -1331 1869 -1331 
Q 1566 -1331 1297 -1286 
Q 1028 -1241 775 -1147 
L 775 -588 
Q 1028 -725 1275 -790 
Q 1522 -856 1778 -856 
Q 2344 -856 2625 -561 
Q 2906 -266 2906 331 
L 2906 616 
Q 2728 306 2450 153 
Q 2172 0 1784 0 
Q 1141 0 747 490 
Q 353 981 353 1791 
Q 353 2603 747 3093 
Q 1141 3584 1784 3584 
Q 2172 3584 2450 3431 
Q 2728 3278 2906 2969 
L 2906 3500 
L 3481 3500 
L 3481 434 
z
" transform="scale(0.015625)"/>
      <path id="DejaVuSans-65" d="M 3597 1894 
L 3597 1613 
L 953 1613 
Q 991 1019 1311 708 
Q 1631 397 2203 397 
Q 2534 397 2845 478 
Q 3156 559 3463 722 
L 3463 178 
Q 3153 47 2828 -22 
Q 2503 -91 2169 -91 
Q 1331 -91 842 396 
Q 353 884 353 1716 
Q 353 2575 817 3079 
Q 1281 3584 2069 3584 
Q 2775 3584 3186 3129 
Q 3597 2675 3597 1894 
z
M 3022 2063 
Q 3016 2534 2758 2815 
Q 2500 3097 2075 3097 
Q 1594 3097 1305 2825 
Q 1016 2553 972 2059 
L 3022 2063 
z
" transform="scale(0.015625)"/>
      <path id="DejaVuSans-74" d="M 1172 4494 
L 1172 3500 
L 2356 3500 
L 2356 3053 
L 1172 3053 
L 1172 1153 
Q 1172 725 1289 603 
Q 1406 481 1766 481 
L 2356 481 
L 2356 0 
L 1766 0 
Q 1100 0 847 248 
Q 594 497 594 1153 
L 594 3053 
L 172 3053 
L 172 3500 
L 594 3500 
L 594 4494 
L 1172 4494 
z
" transform="scale(0.015625)"/>
      <path id="DejaVuSans-5f" d="M 3263 -1063 
L 3263 -1509 
L -63 -1509 
L -63 -1063 
L 3263 -1063 
z
" transform="scale(0.015625)"/>
      <path id="DejaVuSans-73" d="M 2834 3397 
L 2834 2853 
Q 2591 2978 2328 3040 
Q 2066 3103 1784 3103 
Q 1356 3103 1142 2972 
Q 928 2841 928 2578 
Q 928 2378 1081 2264 
Q 1234 2150 1697 2047 
L 1894 2003 
Q 2506 1872 2764 1633 
Q 3022 1394 3022 966 
Q 3022 478 2636 193 
Q 2250 -91 1575 -91 
Q 1294 -91 989 -36 
Q 684 19 347 128 
L 347 722 
Q 666 556 975 473 
Q 1284 391 1588 391 
Q 1994 391 2212 530 
Q 2431 669 2431 922 
Q 2431 1156 2273 1281 
Q 2116 1406 1581 1522 
L 1381 1569 
Q 847 1681 609 1914 
Q 372 2147 372 2553 
Q 372 3047 722 3315 
Q 1072 3584 1716 3584 
Q 2034 3584 2315 3537 
Q 2597 3491 2834 3397 
z
" transform="scale(0.015625)"/>
      <path id="DejaVuSans-75" d="M 544 1381 
L 544 3500 
L 1119 3500 
L 1119 1403 
Q 1119 906 1312 657 
Q 1506 409 1894 409 
Q 2359 409 2629 706 
Q 2900 1003 2900 1516 
L 2900 3500 
L 3475 3500 
L 3475 0 
L 2900 0 
L 2900 538 
Q 2691 219 2414 64 
Q 2138 -91 1772 -91 
Q 1169 -91 856 284 
Q 544 659 544 1381 
z
M 1991 3584 
L 1991 3584 
z
" transform="scale(0.015625)"/>
      <path id="DejaVuSans-62" d="M 3116 1747 
Q 3116 2381 2855 2742 
Q 2594 3103 2138 3103 
Q 1681 3103 1420 2742 
Q 1159 2381 1159 1747 
Q 1159 1113 1420 752 
Q 1681 391 2138 391 
Q 2594 391 2855 752 
Q 3116 1113 3116 1747 
z
M 1159 2969 
Q 1341 3281 1617 3432 
Q 1894 3584 2278 3584 
Q 2916 3584 3314 3078 
Q 3713 2572 3713 1747 
Q 3713 922 3314 415 
Q 2916 -91 2278 -91 
Q 1894 -91 1617 61 
Q 1341 213 1159 525 
L 1159 0 
L 581 0 
L 581 4863 
L 1159 4863 
L 1159 2969 
z
" transform="scale(0.015625)"/>
      <path id="DejaVuSans-63" d="M 3122 3366 
L 3122 2828 
Q 2878 2963 2633 3030 
Q 2388 3097 2138 3097 
Q 1578 3097 1268 2742 
Q 959 2388 959 1747 
Q 959 1106 1268 751 
Q 1578 397 2138 397 
Q 2388 397 2633 464 
Q 2878 531 3122 666 
L 3122 134 
Q 2881 22 2623 -34 
Q 2366 -91 2075 -91 
Q 1284 -91 818 406 
Q 353 903 353 1747 
Q 353 2603 823 3093 
Q 1294 3584 2113 3584 
Q 2378 3584 2631 3529 
Q 2884 3475 3122 3366 
z
" transform="scale(0.015625)"/>
      <path id="DejaVuSans-72" d="M 2631 2963 
Q 2534 3019 2420 3045 
Q 2306 3072 2169 3072 
Q 1681 3072 1420 2755 
Q 1159 2438 1159 1844 
L 1159 0 
L 581 0 
L 581 3500 
L 1159 3500 
L 1159 2956 
Q 1341 3275 1631 3429 
Q 1922 3584 2338 3584 
Q 2397 3584 2469 3576 
Q 2541 3569 2628 3553 
L 2631 2963 
z
" transform="scale(0.015625)"/>
      <path id="DejaVuSans-69" d="M 603 3500 
L 1178 3500 
L 1178 0 
L 603 0 
L 603 3500 
z
M 603 4863 
L 1178 4863 
L 1178 4134 
L 603 4134 
L 603 4863 
z
" transform="scale(0.015625)"/>
      <path id="DejaVuSans-20" transform="scale(0.015625)"/>
      <path id="DejaVuSans-68" d="M 3513 2113 
L 3513 0 
L 2938 0 
L 2938 2094 
Q 2938 2591 2744 2837 
Q 2550 3084 2163 3084 
Q 1697 3084 1428 2787 
Q 1159 2491 1159 1978 
L 1159 0 
L 581 0 
L 581 4863 
L 1159 4863 
L 1159 2956 
Q 1366 3272 1645 3428 
Q 1925 3584 2291 3584 
Q 2894 3584 3203 3211 
Q 3513 2838 3513 2113 
z
" transform="scale(0.015625)"/>
      <path id="DejaVuSans-6f" d="M 1959 3097 
Q 1497 3097 1228 2736 
Q 959 2375 959 1747 
Q 959 1119 1226 758 
Q 1494 397 1959 397 
Q 2419 397 2687 759 
Q 2956 1122 2956 1747 
Q 2956 2369 2687 2733 
Q 2419 3097 1959 3097 
z
M 1959 3584 
Q 2709 3584 3137 3096 
Q 3566 2609 3566 1747 
Q 3566 888 3137 398 
Q 2709 -91 1959 -91 
Q 1206 -91 779 398 
Q 353 888 353 1747 
Q 353 2609 779 3096 
Q 1206 3584 1959 3584 
z
" transform="scale(0.015625)"/>
      <path id="DejaVuSans-79" d="M 2059 -325 
Q 1816 -950 1584 -1140 
Q 1353 -1331 966 -1331 
L 506 -1331 
L 506 -850 
L 844 -850 
Q 1081 -850 1212 -737 
Q 1344 -625 1503 -206 
L 1606 56 
L 191 3500 
L 800 3500 
L 1894 763 
L 2988 3500 
L 3597 3500 
L 2059 -325 
z
" transform="scale(0.015625)"/>
     </defs>
     <use xlink:href="#DejaVuSans-67"/>
     <use xlink:href="#DejaVuSans-65" x="63.476562"/>
     <use xlink:href="#DejaVuSans-74" x="125"/>
     <use xlink:href="#DejaVuSans-5f" x="164.208984"/>
     <use xlink:href="#DejaVuSans-73" x="214.208984"/>
     <use xlink:href="#DejaVuSans-75" x="266.308594"/>
     <use xlink:href="#DejaVuSans-62" x="329.6875"/>
     <use xlink:href="#DejaVuSans-73" x="393.164062"/>
     <use xlink:href="#DejaVuSans-63" x="445.263672"/>
     <use xlink:href="#DejaVuSans-72" x="500.244141"/>
     <use xlink:href="#DejaVuSans-69" x="541.357422"/>
     <use xlink:href="#DejaVuSans-62" x="569.140625"/>
     <use xlink:href="#DejaVuSans-65" x="632.617188"/>
     <use xlink:href="#DejaVuSans-20" x="694.140625"/>
     <use xlink:href="#DejaVuSans-68" x="725.927734"/>
     <use xlink:href="#DejaVuSans-69" x="789.306641"/>
     <use xlink:href="#DejaVuSans-73" x="817.089844"/>
     <use xlink:href="#DejaVuSans-74" x="869.189453"/>
     <use xlink:href="#DejaVuSans-6f" x="908.398438"/>
     <use xlink:href="#DejaVuSans-72" x="969.580078"/>
     <use xlink:href="#DejaVuSans-79" x="1010.693359"/>
    </g>
   </g>
   <g id="legend_1">
    <g id="line2d_39">
     <path d="M 815.08 328.498438 
L 825.08 328.498438 
L 835.08 328.498438 
" style="fill: none; stroke: #1f77b4; stroke-width: 1.5; stroke-linecap: square"/>
    </g>
    <g id="text_20">
     <!-- star -->
     <g style="fill: #a9a9a9" transform="translate(843.08 331.998438) scale(0.1 -0.1)">
      <defs>
       <path id="DejaVuSans-61" d="M 2194 1759 
Q 1497 1759 1228 1600 
Q 959 1441 959 1056 
Q 959 750 1161 570 
Q 1363 391 1709 391 
Q 2188 391 2477 730 
Q 2766 1069 2766 1631 
L 2766 1759 
L 2194 1759 
z
M 3341 1997 
L 3341 0 
L 2766 0 
L 2766 531 
Q 2569 213 2275 61 
Q 1981 -91 1556 -91 
Q 1019 -91 701 211 
Q 384 513 384 1019 
Q 384 1609 779 1909 
Q 1175 2209 1959 2209 
L 2766 2209 
L 2766 2266 
Q 2766 2663 2505 2880 
Q 2244 3097 1772 3097 
Q 1472 3097 1187 3025 
Q 903 2953 641 2809 
L 641 3341 
Q 956 3463 1253 3523 
Q 1550 3584 1831 3584 
Q 2591 3584 2966 3190 
Q 3341 2797 3341 1997 
z
" transform="scale(0.015625)"/>
      </defs>
      <use xlink:href="#DejaVuSans-73"/>
      <use xlink:href="#DejaVuSans-74" x="52.099609"/>
      <use xlink:href="#DejaVuSans-61" x="91.308594"/>
      <use xlink:href="#DejaVuSans-72" x="152.587891"/>
     </g>
    </g>
    <g id="line2d_40">
     <path d="M 815.08 343.176562 
L 825.08 343.176562 
L 835.08 343.176562 
" style="fill: none; stroke: #ff7f0e; stroke-width: 1.5; stroke-linecap: square"/>
    </g>
    <g id="text_21">
     <!-- fork -->
     <g style="fill: #a9a9a9" transform="translate(843.08 346.676562) scale(0.1 -0.1)">
      <defs>
       <path id="DejaVuSans-66" d="M 2375 4863 
L 2375 4384 
L 1825 4384 
Q 1516 4384 1395 4259 
Q 1275 4134 1275 3809 
L 1275 3500 
L 2222 3500 
L 2222 3053 
L 1275 3053 
L 1275 0 
L 697 0 
L 697 3053 
L 147 3053 
L 147 3500 
L 697 3500 
L 697 3744 
Q 697 4328 969 4595 
Q 1241 4863 1831 4863 
L 2375 4863 
z
" transform="scale(0.015625)"/>
       <path id="DejaVuSans-6b" d="M 581 4863 
L 1159 4863 
L 1159 1991 
L 2875 3500 
L 3609 3500 
L 1753 1863 
L 3688 0 
L 2938 0 
L 1159 1709 
L 1159 0 
L 581 0 
L 581 4863 
z
" transform="scale(0.015625)"/>
      </defs>
      <use xlink:href="#DejaVuSans-66"/>
      <use xlink:href="#DejaVuSans-6f" x="35.205078"/>
      <use xlink:href="#DejaVuSans-72" x="96.386719"/>
      <use xlink:href="#DejaVuSans-6b" x="137.5"/>
     </g>
    </g>
   </g>
  </g>
 </g>
 <defs>
  <clipPath id="p6fab8034e4">
   <rect x="108" y="43.2" width="669.6" height="277.2"/>
  </clipPath>
 </defs>
</svg>
