<?xml version="1.0" encoding="utf-8" standalone="no"?>
<!DOCTYPE svg PUBLIC "-//W3C//DTD SVG 1.1//EN"
  "http://www.w3.org/Graphics/SVG/1.1/DTD/svg11.dtd">
<svg xmlns:xlink="http://www.w3.org/1999/xlink" width="864pt" height="360pt" viewBox="0 0 864 360" xmlns="http://www.w3.org/2000/svg" version="1.1">
 <metadata>
  <rdf:RDF xmlns:dc="http://purl.org/dc/elements/1.1/" xmlns:cc="http://creativecommons.org/ns#" xmlns:rdf="http://www.w3.org/1999/02/22-rdf-syntax-ns#">
   <cc:Work>
    <dc:type rdf:resource="http://purl.org/dc/dcmitype/StillImage"/>
    <dc:date>2024-07-01T20:05:25.064999</dc:date>
    <dc:format>image/svg+xml</dc:format>
    <dc:creator>
     <cc:Agent>
      <dc:title>Matplotlib v3.9.0, https://matplotlib.org/</dc:title>
     </cc:Agent>
    </dc:creator>
   </cc:Work>
  </rdf:RDF>
 </metadata>
 <defs>
  <style type="text/css">*{stroke-linejoin: round; stroke-linecap: butt}</style>
 </defs>
 <g id="figure_1">
  <g id="patch_1">
   <path d="M 0 360 
L 864 360 
L 864 0 
L 0 0 
L 0 360 
z
" style="fill: none; opacity: 0"/>
  </g>
  <g id="axes_1">
   <g id="patch_2">
    <path d="M 108 320.4 
L 777.6 320.4 
L 777.6 43.2 
L 108 43.2 
L 108 320.4 
z
" style="fill: none; opacity: 0"/>
   </g>
   <g id="matplotlib.axis_1">
    <g id="xtick_1">
     <g id="line2d_1">
      <path d="M 160.561586 320.4 
L 160.561586 43.2 
" clip-path="url(#p9f43931cf8)" style="fill: none; stroke-dasharray: 5.12,1.28,0.8,1.28; stroke-dashoffset: 0; stroke: #b0b0b0; stroke-width: 0.8"/>
     </g>
     <g id="line2d_2">
      <defs>
       <path id="me3972b86b0" d="M 0 0 
L 0 3.5 
" style="stroke: #a9a9a9; stroke-width: 0.8"/>
      </defs>
      <g>
       <use xlink:href="#me3972b86b0" x="160.561586" y="320.4" style="fill: #a9a9a9; stroke: #a9a9a9; stroke-width: 0.8"/>
      </g>
     </g>
     <g id="text_1">
      <!-- 2021-09 -->
      <g style="fill: #a9a9a9" transform="translate(139.67018 334.998438) scale(0.1 -0.1)">
       <defs>
        <path id="DejaVuSans-32" d="M 1228 531 
L 3431 531 
L 3431 0 
L 469 0 
L 469 531 
Q 828 903 1448 1529 
Q 2069 2156 2228 2338 
Q 2531 2678 2651 2914 
Q 2772 3150 2772 3378 
Q 2772 3750 2511 3984 
Q 2250 4219 1831 4219 
Q 1534 4219 1204 4116 
Q 875 4013 500 3803 
L 500 4441 
Q 881 4594 1212 4672 
Q 1544 4750 1819 4750 
Q 2544 4750 2975 4387 
Q 3406 4025 3406 3419 
Q 3406 3131 3298 2873 
Q 3191 2616 2906 2266 
Q 2828 2175 2409 1742 
Q 1991 1309 1228 531 
z
" transform="scale(0.015625)"/>
        <path id="DejaVuSans-30" d="M 2034 4250 
Q 1547 4250 1301 3770 
Q 1056 3291 1056 2328 
Q 1056 1369 1301 889 
Q 1547 409 2034 409 
Q 2525 409 2770 889 
Q 3016 1369 3016 2328 
Q 3016 3291 2770 3770 
Q 2525 4250 2034 4250 
z
M 2034 4750 
Q 2819 4750 3233 4129 
Q 3647 3509 3647 2328 
Q 3647 1150 3233 529 
Q 2819 -91 2034 -91 
Q 1250 -91 836 529 
Q 422 1150 422 2328 
Q 422 3509 836 4129 
Q 1250 4750 2034 4750 
z
" transform="scale(0.015625)"/>
        <path id="DejaVuSans-31" d="M 794 531 
L 1825 531 
L 1825 4091 
L 703 3866 
L 703 4441 
L 1819 4666 
L 2450 4666 
L 2450 531 
L 3481 531 
L 3481 0 
L 794 0 
L 794 531 
z
" transform="scale(0.015625)"/>
        <path id="DejaVuSans-2d" d="M 313 2009 
L 1997 2009 
L 1997 1497 
L 313 1497 
L 313 2009 
z
" transform="scale(0.015625)"/>
        <path id="DejaVuSans-39" d="M 703 97 
L 703 672 
Q 941 559 1184 500 
Q 1428 441 1663 441 
Q 2288 441 2617 861 
Q 2947 1281 2994 2138 
Q 2813 1869 2534 1725 
Q 2256 1581 1919 1581 
Q 1219 1581 811 2004 
Q 403 2428 403 3163 
Q 403 3881 828 4315 
Q 1253 4750 1959 4750 
Q 2769 4750 3195 4129 
Q 3622 3509 3622 2328 
Q 3622 1225 3098 567 
Q 2575 -91 1691 -91 
Q 1453 -91 1209 -44 
Q 966 3 703 97 
z
M 1959 2075 
Q 2384 2075 2632 2365 
Q 2881 2656 2881 3163 
Q 2881 3666 2632 3958 
Q 2384 4250 1959 4250 
Q 1534 4250 1286 3958 
Q 1038 3666 1038 3163 
Q 1038 2656 1286 2365 
Q 1534 2075 1959 2075 
z
" transform="scale(0.015625)"/>
       </defs>
       <use xlink:href="#DejaVuSans-32"/>
       <use xlink:href="#DejaVuSans-30" x="63.623047"/>
       <use xlink:href="#DejaVuSans-32" x="127.246094"/>
       <use xlink:href="#DejaVuSans-31" x="190.869141"/>
       <use xlink:href="#DejaVuSans-2d" x="254.492188"/>
       <use xlink:href="#DejaVuSans-30" x="290.576172"/>
       <use xlink:href="#DejaVuSans-39" x="354.199219"/>
      </g>
     </g>
    </g>
    <g id="xtick_2">
     <g id="line2d_3">
      <path d="M 229.77382 320.4 
L 229.77382 43.2 
" clip-path="url(#p9f43931cf8)" style="fill: none; stroke-dasharray: 5.12,1.28,0.8,1.28; stroke-dashoffset: 0; stroke: #b0b0b0; stroke-width: 0.8"/>
     </g>
     <g id="line2d_4">
      <g>
       <use xlink:href="#me3972b86b0" x="229.77382" y="320.4" style="fill: #a9a9a9; stroke: #a9a9a9; stroke-width: 0.8"/>
      </g>
     </g>
     <g id="text_2">
      <!-- 2022-01 -->
      <g style="fill: #a9a9a9" transform="translate(208.882414 334.998438) scale(0.1 -0.1)">
       <use xlink:href="#DejaVuSans-32"/>
       <use xlink:href="#DejaVuSans-30" x="63.623047"/>
       <use xlink:href="#DejaVuSans-32" x="127.246094"/>
       <use xlink:href="#DejaVuSans-32" x="190.869141"/>
       <use xlink:href="#DejaVuSans-2d" x="254.492188"/>
       <use xlink:href="#DejaVuSans-30" x="290.576172"/>
       <use xlink:href="#DejaVuSans-31" x="354.199219"/>
      </g>
     </g>
    </g>
    <g id="xtick_3">
     <g id="line2d_5">
      <path d="M 297.851428 320.4 
L 297.851428 43.2 
" clip-path="url(#p9f43931cf8)" style="fill: none; stroke-dasharray: 5.12,1.28,0.8,1.28; stroke-dashoffset: 0; stroke: #b0b0b0; stroke-width: 0.8"/>
     </g>
     <g id="line2d_6">
      <g>
       <use xlink:href="#me3972b86b0" x="297.851428" y="320.4" style="fill: #a9a9a9; stroke: #a9a9a9; stroke-width: 0.8"/>
      </g>
     </g>
     <g id="text_3">
      <!-- 2022-05 -->
      <g style="fill: #a9a9a9" transform="translate(276.960021 334.998438) scale(0.1 -0.1)">
       <defs>
        <path id="DejaVuSans-35" d="M 691 4666 
L 3169 4666 
L 3169 4134 
L 1269 4134 
L 1269 2991 
Q 1406 3038 1543 3061 
Q 1681 3084 1819 3084 
Q 2600 3084 3056 2656 
Q 3513 2228 3513 1497 
Q 3513 744 3044 326 
Q 2575 -91 1722 -91 
Q 1428 -91 1123 -41 
Q 819 9 494 109 
L 494 744 
Q 775 591 1075 516 
Q 1375 441 1709 441 
Q 2250 441 2565 725 
Q 2881 1009 2881 1497 
Q 2881 1984 2565 2268 
Q 2250 2553 1709 2553 
Q 1456 2553 1204 2497 
Q 953 2441 691 2322 
L 691 4666 
z
" transform="scale(0.015625)"/>
       </defs>
       <use xlink:href="#DejaVuSans-32"/>
       <use xlink:href="#DejaVuSans-30" x="63.623047"/>
       <use xlink:href="#DejaVuSans-32" x="127.246094"/>
       <use xlink:href="#DejaVuSans-32" x="190.869141"/>
       <use xlink:href="#DejaVuSans-2d" x="254.492188"/>
       <use xlink:href="#DejaVuSans-30" x="290.576172"/>
       <use xlink:href="#DejaVuSans-35" x="354.199219"/>
      </g>
     </g>
    </g>
    <g id="xtick_4">
     <g id="line2d_7">
      <path d="M 367.630975 320.4 
L 367.630975 43.2 
" clip-path="url(#p9f43931cf8)" style="fill: none; stroke-dasharray: 5.12,1.28,0.8,1.28; stroke-dashoffset: 0; stroke: #b0b0b0; stroke-width: 0.8"/>
     </g>
     <g id="line2d_8">
      <g>
       <use xlink:href="#me3972b86b0" x="367.630975" y="320.4" style="fill: #a9a9a9; stroke: #a9a9a9; stroke-width: 0.8"/>
      </g>
     </g>
     <g id="text_4">
      <!-- 2022-09 -->
      <g style="fill: #a9a9a9" transform="translate(346.739569 334.998438) scale(0.1 -0.1)">
       <use xlink:href="#DejaVuSans-32"/>
       <use xlink:href="#DejaVuSans-30" x="63.623047"/>
       <use xlink:href="#DejaVuSans-32" x="127.246094"/>
       <use xlink:href="#DejaVuSans-32" x="190.869141"/>
       <use xlink:href="#DejaVuSans-2d" x="254.492188"/>
       <use xlink:href="#DejaVuSans-30" x="290.576172"/>
       <use xlink:href="#DejaVuSans-39" x="354.199219"/>
      </g>
     </g>
    </g>
    <g id="xtick_5">
     <g id="line2d_9">
      <path d="M 436.843209 320.4 
L 436.843209 43.2 
" clip-path="url(#p9f43931cf8)" style="fill: none; stroke-dasharray: 5.12,1.28,0.8,1.28; stroke-dashoffset: 0; stroke: #b0b0b0; stroke-width: 0.8"/>
     </g>
     <g id="line2d_10">
      <g>
       <use xlink:href="#me3972b86b0" x="436.843209" y="320.4" style="fill: #a9a9a9; stroke: #a9a9a9; stroke-width: 0.8"/>
      </g>
     </g>
     <g id="text_5">
      <!-- 2023-01 -->
      <g style="fill: #a9a9a9" transform="translate(415.951803 334.998438) scale(0.1 -0.1)">
       <defs>
        <path id="DejaVuSans-33" d="M 2597 2516 
Q 3050 2419 3304 2112 
Q 3559 1806 3559 1356 
Q 3559 666 3084 287 
Q 2609 -91 1734 -91 
Q 1441 -91 1130 -33 
Q 819 25 488 141 
L 488 750 
Q 750 597 1062 519 
Q 1375 441 1716 441 
Q 2309 441 2620 675 
Q 2931 909 2931 1356 
Q 2931 1769 2642 2001 
Q 2353 2234 1838 2234 
L 1294 2234 
L 1294 2753 
L 1863 2753 
Q 2328 2753 2575 2939 
Q 2822 3125 2822 3475 
Q 2822 3834 2567 4026 
Q 2313 4219 1838 4219 
Q 1578 4219 1281 4162 
Q 984 4106 628 3988 
L 628 4550 
Q 988 4650 1302 4700 
Q 1616 4750 1894 4750 
Q 2613 4750 3031 4423 
Q 3450 4097 3450 3541 
Q 3450 3153 3228 2886 
Q 3006 2619 2597 2516 
z
" transform="scale(0.015625)"/>
       </defs>
       <use xlink:href="#DejaVuSans-32"/>
       <use xlink:href="#DejaVuSans-30" x="63.623047"/>
       <use xlink:href="#DejaVuSans-32" x="127.246094"/>
       <use xlink:href="#DejaVuSans-33" x="190.869141"/>
       <use xlink:href="#DejaVuSans-2d" x="254.492188"/>
       <use xlink:href="#DejaVuSans-30" x="290.576172"/>
       <use xlink:href="#DejaVuSans-31" x="354.199219"/>
      </g>
     </g>
    </g>
    <g id="xtick_6">
     <g id="line2d_11">
      <path d="M 504.920817 320.4 
L 504.920817 43.2 
" clip-path="url(#p9f43931cf8)" style="fill: none; stroke-dasharray: 5.12,1.28,0.8,1.28; stroke-dashoffset: 0; stroke: #b0b0b0; stroke-width: 0.8"/>
     </g>
     <g id="line2d_12">
      <g>
       <use xlink:href="#me3972b86b0" x="504.920817" y="320.4" style="fill: #a9a9a9; stroke: #a9a9a9; stroke-width: 0.8"/>
      </g>
     </g>
     <g id="text_6">
      <!-- 2023-05 -->
      <g style="fill: #a9a9a9" transform="translate(484.02941 334.998438) scale(0.1 -0.1)">
       <use xlink:href="#DejaVuSans-32"/>
       <use xlink:href="#DejaVuSans-30" x="63.623047"/>
       <use xlink:href="#DejaVuSans-32" x="127.246094"/>
       <use xlink:href="#DejaVuSans-33" x="190.869141"/>
       <use xlink:href="#DejaVuSans-2d" x="254.492188"/>
       <use xlink:href="#DejaVuSans-30" x="290.576172"/>
       <use xlink:href="#DejaVuSans-35" x="354.199219"/>
      </g>
     </g>
    </g>
    <g id="xtick_7">
     <g id="line2d_13">
      <path d="M 574.700364 320.4 
L 574.700364 43.2 
" clip-path="url(#p9f43931cf8)" style="fill: none; stroke-dasharray: 5.12,1.28,0.8,1.28; stroke-dashoffset: 0; stroke: #b0b0b0; stroke-width: 0.8"/>
     </g>
     <g id="line2d_14">
      <g>
       <use xlink:href="#me3972b86b0" x="574.700364" y="320.4" style="fill: #a9a9a9; stroke: #a9a9a9; stroke-width: 0.8"/>
      </g>
     </g>
     <g id="text_7">
      <!-- 2023-09 -->
      <g style="fill: #a9a9a9" transform="translate(553.808958 334.998438) scale(0.1 -0.1)">
       <use xlink:href="#DejaVuSans-32"/>
       <use xlink:href="#DejaVuSans-30" x="63.623047"/>
       <use xlink:href="#DejaVuSans-32" x="127.246094"/>
       <use xlink:href="#DejaVuSans-33" x="190.869141"/>
       <use xlink:href="#DejaVuSans-2d" x="254.492188"/>
       <use xlink:href="#DejaVuSans-30" x="290.576172"/>
       <use xlink:href="#DejaVuSans-39" x="354.199219"/>
      </g>
     </g>
    </g>
    <g id="xtick_8">
     <g id="line2d_15">
      <path d="M 643.912598 320.4 
L 643.912598 43.2 
" clip-path="url(#p9f43931cf8)" style="fill: none; stroke-dasharray: 5.12,1.28,0.8,1.28; stroke-dashoffset: 0; stroke: #b0b0b0; stroke-width: 0.8"/>
     </g>
     <g id="line2d_16">
      <g>
       <use xlink:href="#me3972b86b0" x="643.912598" y="320.4" style="fill: #a9a9a9; stroke: #a9a9a9; stroke-width: 0.8"/>
      </g>
     </g>
     <g id="text_8">
      <!-- 2024-01 -->
      <g style="fill: #a9a9a9" transform="translate(623.021192 334.998438) scale(0.1 -0.1)">
       <defs>
        <path id="DejaVuSans-34" d="M 2419 4116 
L 825 1625 
L 2419 1625 
L 2419 4116 
z
M 2253 4666 
L 3047 4666 
L 3047 1625 
L 3713 1625 
L 3713 1100 
L 3047 1100 
L 3047 0 
L 2419 0 
L 2419 1100 
L 313 1100 
L 313 1709 
L 2253 4666 
z
" transform="scale(0.015625)"/>
       </defs>
       <use xlink:href="#DejaVuSans-32"/>
       <use xlink:href="#DejaVuSans-30" x="63.623047"/>
       <use xlink:href="#DejaVuSans-32" x="127.246094"/>
       <use xlink:href="#DejaVuSans-34" x="190.869141"/>
       <use xlink:href="#DejaVuSans-2d" x="254.492188"/>
       <use xlink:href="#DejaVuSans-30" x="290.576172"/>
       <use xlink:href="#DejaVuSans-31" x="354.199219"/>
      </g>
     </g>
    </g>
    <g id="xtick_9">
     <g id="line2d_17">
      <path d="M 712.557519 320.4 
L 712.557519 43.2 
" clip-path="url(#p9f43931cf8)" style="fill: none; stroke-dasharray: 5.12,1.28,0.8,1.28; stroke-dashoffset: 0; stroke: #b0b0b0; stroke-width: 0.8"/>
     </g>
     <g id="line2d_18">
      <g>
       <use xlink:href="#me3972b86b0" x="712.557519" y="320.4" style="fill: #a9a9a9; stroke: #a9a9a9; stroke-width: 0.8"/>
      </g>
     </g>
     <g id="text_9">
      <!-- 2024-05 -->
      <g style="fill: #a9a9a9" transform="translate(691.666113 334.998438) scale(0.1 -0.1)">
       <use xlink:href="#DejaVuSans-32"/>
       <use xlink:href="#DejaVuSans-30" x="63.623047"/>
       <use xlink:href="#DejaVuSans-32" x="127.246094"/>
       <use xlink:href="#DejaVuSans-34" x="190.869141"/>
       <use xlink:href="#DejaVuSans-2d" x="254.492188"/>
       <use xlink:href="#DejaVuSans-30" x="290.576172"/>
       <use xlink:href="#DejaVuSans-35" x="354.199219"/>
      </g>
     </g>
    </g>
   </g>
   <g id="matplotlib.axis_2">
    <g id="ytick_1">
     <g id="line2d_19">
      <path d="M 108 307.839905 
L 777.6 307.839905 
" clip-path="url(#p9f43931cf8)" style="fill: none; stroke-dasharray: 5.12,1.28,0.8,1.28; stroke-dashoffset: 0; stroke: #b0b0b0; stroke-width: 0.8"/>
     </g>
     <g id="line2d_20">
      <defs>
       <path id="mf0cb60774d" d="M 0 0 
L -3.5 0 
" style="stroke: #a9a9a9; stroke-width: 0.8"/>
      </defs>
      <g>
       <use xlink:href="#mf0cb60774d" x="108" y="307.839905" style="fill: #a9a9a9; stroke: #a9a9a9; stroke-width: 0.8"/>
      </g>
     </g>
     <g id="text_10">
      <!-- 0 -->
      <g style="fill: #a9a9a9" transform="translate(94.6375 311.639124) scale(0.1 -0.1)">
       <use xlink:href="#DejaVuSans-30"/>
      </g>
     </g>
    </g>
    <g id="ytick_2">
     <g id="line2d_21">
      <path d="M 108 275.915914 
L 777.6 275.915914 
" clip-path="url(#p9f43931cf8)" style="fill: none; stroke-dasharray: 5.12,1.28,0.8,1.28; stroke-dashoffset: 0; stroke: #b0b0b0; stroke-width: 0.8"/>
     </g>
     <g id="line2d_22">
      <g>
       <use xlink:href="#mf0cb60774d" x="108" y="275.915914" style="fill: #a9a9a9; stroke: #a9a9a9; stroke-width: 0.8"/>
      </g>
     </g>
     <g id="text_11">
      <!-- 800 -->
      <g style="fill: #a9a9a9" transform="translate(81.9125 279.715133) scale(0.1 -0.1)">
       <defs>
        <path id="DejaVuSans-38" d="M 2034 2216 
Q 1584 2216 1326 1975 
Q 1069 1734 1069 1313 
Q 1069 891 1326 650 
Q 1584 409 2034 409 
Q 2484 409 2743 651 
Q 3003 894 3003 1313 
Q 3003 1734 2745 1975 
Q 2488 2216 2034 2216 
z
M 1403 2484 
Q 997 2584 770 2862 
Q 544 3141 544 3541 
Q 544 4100 942 4425 
Q 1341 4750 2034 4750 
Q 2731 4750 3128 4425 
Q 3525 4100 3525 3541 
Q 3525 3141 3298 2862 
Q 3072 2584 2669 2484 
Q 3125 2378 3379 2068 
Q 3634 1759 3634 1313 
Q 3634 634 3220 271 
Q 2806 -91 2034 -91 
Q 1263 -91 848 271 
Q 434 634 434 1313 
Q 434 1759 690 2068 
Q 947 2378 1403 2484 
z
M 1172 3481 
Q 1172 3119 1398 2916 
Q 1625 2713 2034 2713 
Q 2441 2713 2670 2916 
Q 2900 3119 2900 3481 
Q 2900 3844 2670 4047 
Q 2441 4250 2034 4250 
Q 1625 4250 1398 4047 
Q 1172 3844 1172 3481 
z
" transform="scale(0.015625)"/>
       </defs>
       <use xlink:href="#DejaVuSans-38"/>
       <use xlink:href="#DejaVuSans-30" x="63.623047"/>
       <use xlink:href="#DejaVuSans-30" x="127.246094"/>
      </g>
     </g>
    </g>
    <g id="ytick_3">
     <g id="line2d_23">
      <path d="M 108 243.991924 
L 777.6 243.991924 
" clip-path="url(#p9f43931cf8)" style="fill: none; stroke-dasharray: 5.12,1.28,0.8,1.28; stroke-dashoffset: 0; stroke: #b0b0b0; stroke-width: 0.8"/>
     </g>
     <g id="line2d_24">
      <g>
       <use xlink:href="#mf0cb60774d" x="108" y="243.991924" style="fill: #a9a9a9; stroke: #a9a9a9; stroke-width: 0.8"/>
      </g>
     </g>
     <g id="text_12">
      <!-- 1600 -->
      <g style="fill: #a9a9a9" transform="translate(75.55 247.791143) scale(0.1 -0.1)">
       <defs>
        <path id="DejaVuSans-36" d="M 2113 2584 
Q 1688 2584 1439 2293 
Q 1191 2003 1191 1497 
Q 1191 994 1439 701 
Q 1688 409 2113 409 
Q 2538 409 2786 701 
Q 3034 994 3034 1497 
Q 3034 2003 2786 2293 
Q 2538 2584 2113 2584 
z
M 3366 4563 
L 3366 3988 
Q 3128 4100 2886 4159 
Q 2644 4219 2406 4219 
Q 1781 4219 1451 3797 
Q 1122 3375 1075 2522 
Q 1259 2794 1537 2939 
Q 1816 3084 2150 3084 
Q 2853 3084 3261 2657 
Q 3669 2231 3669 1497 
Q 3669 778 3244 343 
Q 2819 -91 2113 -91 
Q 1303 -91 875 529 
Q 447 1150 447 2328 
Q 447 3434 972 4092 
Q 1497 4750 2381 4750 
Q 2619 4750 2861 4703 
Q 3103 4656 3366 4563 
z
" transform="scale(0.015625)"/>
       </defs>
       <use xlink:href="#DejaVuSans-31"/>
       <use xlink:href="#DejaVuSans-36" x="63.623047"/>
       <use xlink:href="#DejaVuSans-30" x="127.246094"/>
       <use xlink:href="#DejaVuSans-30" x="190.869141"/>
      </g>
     </g>
    </g>
    <g id="ytick_4">
     <g id="line2d_25">
      <path d="M 108 212.067933 
L 777.6 212.067933 
" clip-path="url(#p9f43931cf8)" style="fill: none; stroke-dasharray: 5.12,1.28,0.8,1.28; stroke-dashoffset: 0; stroke: #b0b0b0; stroke-width: 0.8"/>
     </g>
     <g id="line2d_26">
      <g>
       <use xlink:href="#mf0cb60774d" x="108" y="212.067933" style="fill: #a9a9a9; stroke: #a9a9a9; stroke-width: 0.8"/>
      </g>
     </g>
     <g id="text_13">
      <!-- 2400 -->
      <g style="fill: #a9a9a9" transform="translate(75.55 215.867152) scale(0.1 -0.1)">
       <use xlink:href="#DejaVuSans-32"/>
       <use xlink:href="#DejaVuSans-34" x="63.623047"/>
       <use xlink:href="#DejaVuSans-30" x="127.246094"/>
       <use xlink:href="#DejaVuSans-30" x="190.869141"/>
      </g>
     </g>
    </g>
    <g id="ytick_5">
     <g id="line2d_27">
      <path d="M 108 180.143943 
L 777.6 180.143943 
" clip-path="url(#p9f43931cf8)" style="fill: none; stroke-dasharray: 5.12,1.28,0.8,1.28; stroke-dashoffset: 0; stroke: #b0b0b0; stroke-width: 0.8"/>
     </g>
     <g id="line2d_28">
      <g>
       <use xlink:href="#mf0cb60774d" x="108" y="180.143943" style="fill: #a9a9a9; stroke: #a9a9a9; stroke-width: 0.8"/>
      </g>
     </g>
     <g id="text_14">
      <!-- 3200 -->
      <g style="fill: #a9a9a9" transform="translate(75.55 183.943162) scale(0.1 -0.1)">
       <use xlink:href="#DejaVuSans-33"/>
       <use xlink:href="#DejaVuSans-32" x="63.623047"/>
       <use xlink:href="#DejaVuSans-30" x="127.246094"/>
       <use xlink:href="#DejaVuSans-30" x="190.869141"/>
      </g>
     </g>
    </g>
    <g id="ytick_6">
     <g id="line2d_29">
      <path d="M 108 148.219952 
L 777.6 148.219952 
" clip-path="url(#p9f43931cf8)" style="fill: none; stroke-dasharray: 5.12,1.28,0.8,1.28; stroke-dashoffset: 0; stroke: #b0b0b0; stroke-width: 0.8"/>
     </g>
     <g id="line2d_30">
      <g>
       <use xlink:href="#mf0cb60774d" x="108" y="148.219952" style="fill: #a9a9a9; stroke: #a9a9a9; stroke-width: 0.8"/>
      </g>
     </g>
     <g id="text_15">
      <!-- 4000 -->
      <g style="fill: #a9a9a9" transform="translate(75.55 152.019171) scale(0.1 -0.1)">
       <use xlink:href="#DejaVuSans-34"/>
       <use xlink:href="#DejaVuSans-30" x="63.623047"/>
       <use xlink:href="#DejaVuSans-30" x="127.246094"/>
       <use xlink:href="#DejaVuSans-30" x="190.869141"/>
      </g>
     </g>
    </g>
    <g id="ytick_7">
     <g id="line2d_31">
      <path d="M 108 116.295962 
L 777.6 116.295962 
" clip-path="url(#p9f43931cf8)" style="fill: none; stroke-dasharray: 5.12,1.28,0.8,1.28; stroke-dashoffset: 0; stroke: #b0b0b0; stroke-width: 0.8"/>
     </g>
     <g id="line2d_32">
      <g>
       <use xlink:href="#mf0cb60774d" x="108" y="116.295962" style="fill: #a9a9a9; stroke: #a9a9a9; stroke-width: 0.8"/>
      </g>
     </g>
     <g id="text_16">
      <!-- 4800 -->
      <g style="fill: #a9a9a9" transform="translate(75.55 120.095181) scale(0.1 -0.1)">
       <use xlink:href="#DejaVuSans-34"/>
       <use xlink:href="#DejaVuSans-38" x="63.623047"/>
       <use xlink:href="#DejaVuSans-30" x="127.246094"/>
       <use xlink:href="#DejaVuSans-30" x="190.869141"/>
      </g>
     </g>
    </g>
    <g id="ytick_8">
     <g id="line2d_33">
      <path d="M 108 84.371971 
L 777.6 84.371971 
" clip-path="url(#p9f43931cf8)" style="fill: none; stroke-dasharray: 5.12,1.28,0.8,1.28; stroke-dashoffset: 0; stroke: #b0b0b0; stroke-width: 0.8"/>
     </g>
     <g id="line2d_34">
      <g>
       <use xlink:href="#mf0cb60774d" x="108" y="84.371971" style="fill: #a9a9a9; stroke: #a9a9a9; stroke-width: 0.8"/>
      </g>
     </g>
     <g id="text_17">
      <!-- 5600 -->
      <g style="fill: #a9a9a9" transform="translate(75.55 88.17119) scale(0.1 -0.1)">
       <use xlink:href="#DejaVuSans-35"/>
       <use xlink:href="#DejaVuSans-36" x="63.623047"/>
       <use xlink:href="#DejaVuSans-30" x="127.246094"/>
       <use xlink:href="#DejaVuSans-30" x="190.869141"/>
      </g>
     </g>
    </g>
    <g id="ytick_9">
     <g id="line2d_35">
      <path d="M 108 52.447981 
L 777.6 52.447981 
" clip-path="url(#p9f43931cf8)" style="fill: none; stroke-dasharray: 5.12,1.28,0.8,1.28; stroke-dashoffset: 0; stroke: #b0b0b0; stroke-width: 0.8"/>
     </g>
     <g id="line2d_36">
      <g>
       <use xlink:href="#mf0cb60774d" x="108" y="52.447981" style="fill: #a9a9a9; stroke: #a9a9a9; stroke-width: 0.8"/>
      </g>
     </g>
     <g id="text_18">
      <!-- 6400 -->
      <g style="fill: #a9a9a9" transform="translate(75.55 56.2472) scale(0.1 -0.1)">
       <use xlink:href="#DejaVuSans-36"/>
       <use xlink:href="#DejaVuSans-34" x="63.623047"/>
       <use xlink:href="#DejaVuSans-30" x="127.246094"/>
       <use xlink:href="#DejaVuSans-30" x="190.869141"/>
      </g>
     </g>
    </g>
   </g>
   <g id="line2d_37">
    <path d="M 138.436364 307.72019 
L 141.840244 307.440855 
L 142.407557 307.201425 
L 144.109498 307.0019 
L 147.513378 306.323515 
L 150.917258 306.044181 
L 152.051885 305.605226 
L 152.619199 304.886936 
L 153.186512 304.487886 
L 153.753825 303.250831 
L 154.321139 303.171021 
L 154.888452 302.732067 
L 156.023079 302.173397 
L 158.292332 300.417577 
L 160.561586 299.340143 
L 162.263526 298.581948 
L 162.83084 297.704038 
L 163.965466 296.905938 
L 164.53278 296.666508 
L 170.205914 295.868409 
L 170.773227 295.589074 
L 174.744421 295.269834 
L 176.446361 294.830879 
L 181.552182 294.152494 
L 182.119495 293.833254 
L 182.686808 293.753444 
L 183.821435 293.394299 
L 187.792629 292.755819 
L 188.927256 292.43658 
L 190.629196 292.27696 
L 191.763823 292.157245 
L 192.331136 291.997625 
L 192.89845 291.95772 
L 194.60039 291.438955 
L 195.735017 291.359145 
L 196.869643 291.199525 
L 198.00427 290.960095 
L 198.571583 290.800475 
L 199.138897 290.04228 
L 200.840837 289.4038 
L 202.542777 288.964846 
L 203.110091 288.685511 
L 203.677404 288.645606 
L 206.513971 287.847506 
L 207.648598 287.767696 
L 208.215911 287.687886 
L 209.917851 287.169121 
L 212.187105 286.610451 
L 212.754418 286.371021 
L 213.321732 286.291211 
L 213.889045 286.011876 
L 219.562179 285.173872 
L 222.398746 284.375772 
L 222.966059 284.016627 
L 225.235313 283.418052 
L 227.504567 282.260808 
L 229.206507 281.861758 
L 229.77382 281.781948 
L 230.341134 281.502613 
L 231.47576 281.303088 
L 232.610387 280.784323 
L 235.446954 280.066033 
L 237.148894 279.627078 
L 238.850835 279.028504 
L 239.418148 278.948694 
L 240.552775 278.509739 
L 241.687402 278.429929 
L 242.822028 278.030879 
L 245.658595 277.591924 
L 246.225909 277.392399 
L 247.360535 277.352494 
L 249.629789 277.073159 
L 250.764416 276.514489 
L 257.572177 273.521615 
L 258.13949 272.92304 
L 259.274117 271.247031 
L 259.84143 271.087411 
L 260.408744 271.087411 
L 261.54337 270.249406 
L 262.110684 270.089786 
L 262.677997 269.810451 
L 263.245311 269.690736 
L 263.812624 269.171971 
L 264.379937 269.012352 
L 266.081877 268.214252 
L 267.216504 266.618052 
L 267.783818 266.258907 
L 268.351131 265.301188 
L 268.918444 264.702613 
L 272.322325 262.946793 
L 273.456952 262.068884 
L 274.024265 261.709739 
L 274.591578 260.871734 
L 275.158892 259.634679 
L 275.726205 258.796675 
L 276.293519 258.35772 
L 276.860832 258.11829 
L 279.130086 256.12304 
L 280.264712 255.205226 
L 280.832026 254.726366 
L 281.399339 253.968171 
L 282.533966 252.970546 
L 284.80322 251.494062 
L 285.370533 251.015202 
L 285.937846 250.895487 
L 287.072473 250.296912 
L 289.341727 249.139667 
L 290.476353 248.062233 
L 291.043667 247.383848 
L 292.178294 246.585748 
L 292.745607 246.426128 
L 293.31292 246.146793 
L 294.447547 245.388599 
L 295.014861 245.069359 
L 295.582174 244.989549 
L 299.553368 242.555344 
L 301.822621 241.358195 
L 302.389935 240.83943 
L 304.659188 240.12114 
L 305.226502 239.72209 
L 305.793815 239.602375 
L 308.063069 238.764371 
L 310.899636 237.846556 
L 311.466949 237.726841 
L 312.601576 236.729216 
L 314.303516 235.931116 
L 315.438143 235.252732 
L 316.57277 234.933492 
L 317.140083 234.574347 
L 317.707396 234.414727 
L 319.409337 233.337292 
L 322.245904 232.658907 
L 323.947844 231.661283 
L 324.515157 231.581473 
L 325.082471 231.381948 
L 326.217097 231.142518 
L 327.919038 229.865558 
L 329.620978 229.466508 
L 330.188291 229.266983 
L 330.755605 228.828029 
L 334.159485 227.710689 
L 334.726798 227.670784 
L 335.294112 227.511164 
L 336.428738 227.032304 
L 340.399932 225.635629 
L 341.534559 225.47601 
L 342.101872 225.31639 
L 342.669186 225.037055 
L 343.236499 224.91734 
L 346.073066 223.600475 
L 348.34232 222.403325 
L 352.880827 220.607601 
L 353.44814 220.527791 
L 354.582767 219.849406 
L 355.15008 219.769596 
L 357.419334 218.851781 
L 359.688588 218.492637 
L 360.823214 217.933967 
L 361.390528 217.455107 
L 361.957841 216.457482 
L 363.659781 216.138242 
L 365.929035 214.941093 
L 366.496348 214.821378 
L 371.034856 212.706413 
L 372.736796 212.347268 
L 373.871423 211.788599 
L 374.438736 211.549169 
L 375.006049 211.469359 
L 377.275303 210.471734 
L 378.977243 209.434204 
L 379.544556 209.354394 
L 380.11187 209.154869 
L 380.679183 209.114964 
L 382.948437 208.476485 
L 383.51575 208.43658 
L 384.083064 207.997625 
L 385.21769 207.598575 
L 386.919631 207.039905 
L 387.486944 206.68076 
L 388.054257 206.52114 
L 388.621571 206.12209 
L 392.025451 204.765321 
L 392.592765 204.605701 
L 393.160078 204.326366 
L 394.862018 203.009501 
L 395.429332 202.889786 
L 396.563958 202.011876 
L 397.131272 201.932067 
L 397.698585 201.054157 
L 398.265899 200.814727 
L 398.833212 200.375772 
L 399.400525 200.295962 
L 400.535152 199.617577 
L 401.102465 199.497862 
L 401.669779 199.258432 
L 402.237092 198.819477 
L 402.804406 198.619952 
L 404.506346 197.462708 
L 406.775599 196.305463 
L 407.342913 196.225653 
L 409.044853 195.387648 
L 409.612166 194.429929 
L 410.17948 193.951069 
L 410.746793 193.631829 
L 411.314107 193.512114 
L 412.448733 192.793824 
L 413.016047 192.674109 
L 414.150674 192.115439 
L 415.852614 191.39715 
L 416.987241 190.59905 
L 418.121867 189.4019 
L 419.256494 188.723515 
L 419.823808 188.364371 
L 420.391121 187.765796 
L 422.660374 186.209501 
L 423.227688 185.571021 
L 423.795001 185.132067 
L 424.929628 184.733017 
L 426.064255 183.974822 
L 427.766195 183.136817 
L 428.333508 183.057007 
L 430.035449 182.139192 
L 431.170075 181.460808 
L 436.843209 179.465558 
L 437.410523 178.986698 
L 439.679776 178.148694 
L 440.24709 177.989074 
L 440.814403 177.550119 
L 443.65097 176.033729 
L 444.785597 173.79905 
L 445.920224 172.52209 
L 447.05485 171.843705 
L 448.756791 171.165321 
L 449.324104 171.085511 
L 449.891417 170.766271 
L 452.727984 169.888361 
L 453.295298 169.648931 
L 454.429925 168.890736 
L 455.564551 168.491686 
L 458.968432 166.496437 
L 459.535745 165.897862 
L 460.670372 165.299287 
L 463.506939 163.822803 
L 466.910819 162.186698 
L 467.478133 162.066983 
L 469.180073 161.468409 
L 469.747386 161.308789 
L 472.01664 160.311164 
L 473.151267 159.872209 
L 473.71858 159.433254 
L 474.853207 159.074109 
L 478.257087 157.358195 
L 479.391714 156.480285 
L 480.526341 156.081235 
L 481.093654 155.602375 
L 481.660968 155.522565 
L 482.795594 154.684561 
L 483.930221 154.125891 
L 484.497535 153.886461 
L 485.064848 153.327791 
L 488.468728 152.090736 
L 490.170668 151.332542 
L 491.872609 150.813777 
L 493.007235 150.654157 
L 493.574549 150.414727 
L 494.141862 150.334917 
L 495.276489 149.856057 
L 495.843802 149.816152 
L 498.113056 148.978147 
L 499.814996 147.820903 
L 502.651563 146.504038 
L 505.48813 144.987648 
L 506.055444 144.867933 
L 507.757384 143.910214 
L 509.459324 143.351544 
L 510.593951 142.992399 
L 512.863204 142.274109 
L 513.997831 141.914964 
L 515.699771 141.635629 
L 517.969025 140.91734 
L 518.536338 140.67791 
L 519.103652 140.5981 
L 519.670965 140.318765 
L 520.805592 140.079335 
L 522.507532 139.48076 
L 523.642159 139.361045 
L 524.776786 139.08171 
L 526.478726 138.802375 
L 527.046039 138.642755 
L 528.180666 138.52304 
L 531.017233 137.804751 
L 532.15186 137.525416 
L 532.719173 137.206176 
L 535.55574 136.487886 
L 536.123053 136.368171 
L 538.392307 135.530166 
L 541.228874 134.692162 
L 541.796187 134.692162 
L 542.930814 134.293112 
L 543.498128 133.734442 
L 544.632754 133.295487 
L 546.334695 132.617102 
L 547.469321 132.218052 
L 548.036635 132.098337 
L 548.603948 131.739192 
L 549.171262 131.619477 
L 549.738575 131.300238 
L 552.575142 130.502138 
L 553.142455 130.142993 
L 553.709769 130.023278 
L 554.277082 129.544418 
L 555.979022 129.225178 
L 557.113649 128.626603 
L 557.680962 127.988124 
L 558.815589 127.748694 
L 563.92141 126.671259 
L 564.488723 126.671259 
L 565.056037 126.431829 
L 567.32529 126.032779 
L 567.892604 125.793349 
L 569.594544 125.553919 
L 571.863797 124.835629 
L 573.565738 124.43658 
L 575.267678 123.997625 
L 576.969618 123.47886 
L 579.806185 122.640855 
L 580.373498 122.321615 
L 582.075438 121.762945 
L 582.642752 121.32399 
L 583.777379 121.004751 
L 584.912005 120.645606 
L 586.046632 120.166746 
L 587.748572 119.408551 
L 589.450513 119.288836 
L 591.719766 118.650356 
L 592.28708 118.291211 
L 593.421706 117.971971 
L 596.258273 116.695012 
L 596.825587 116.655107 
L 603.066034 114.540143 
L 605.335288 113.981473 
L 605.902601 113.821853 
L 607.037228 113.303088 
L 607.604541 113.223278 
L 608.739168 112.904038 
L 609.306481 112.465083 
L 609.873795 112.185748 
L 610.441108 111.507363 
L 611.008422 111.108314 
L 612.143048 110.749169 
L 612.710362 110.310214 
L 618.950809 107.756295 
L 620.085436 107.47696 
L 621.787376 106.67886 
L 622.922003 106.000475 
L 623.489316 105.88076 
L 624.623943 105.202375 
L 625.191256 104.962945 
L 626.325883 104.284561 
L 628.027823 103.486461 
L 628.595137 103.087411 
L 629.729764 102.728266 
L 630.86439 102.049881 
L 631.431704 101.850356 
L 631.999017 101.451306 
L 633.133644 101.052257 
L 633.700957 100.932542 
L 635.970211 99.895012 
L 638.806778 98.897387 
L 639.941405 98.737767 
L 640.508718 98.378622 
L 641.076032 98.298812 
L 641.643345 98.099287 
L 643.345285 97.780048 
L 647.316479 95.864608 
L 647.883792 95.784798 
L 649.585732 94.866983 
L 651.854986 93.989074 
L 656.393493 92.073634 
L 657.52812 91.914014 
L 658.095433 91.554869 
L 658.662747 91.514964 
L 659.797374 91.155819 
L 660.932 90.59715 
L 661.499314 90.51734 
L 664.335881 89.4 
L 664.903194 89.280285 
L 666.037821 88.92114 
L 666.605134 88.721615 
L 667.739761 88.52209 
L 669.441701 88.003325 
L 674.547522 85.569121 
L 675.114835 85.449406 
L 675.682149 85.130166 
L 676.249462 85.010451 
L 677.951402 84.132542 
L 678.518716 83.972922 
L 680.787969 82.895487 
L 682.489909 82.456532 
L 685.89379 81.099762 
L 687.59573 80.541093 
L 697.807371 76.311164 
L 698.941998 75.912114 
L 700.643938 74.994299 
L 701.211251 74.874584 
L 702.345878 74.435629 
L 702.913192 74.435629 
L 704.047818 73.916865 
L 704.615132 73.47791 
L 705.749759 72.400475 
L 707.451699 71.602375 
L 708.019012 71.48266 
L 708.586326 71.203325 
L 709.153639 71.123515 
L 709.720952 70.724466 
L 710.288266 70.604751 
L 711.422892 69.926366 
L 712.557519 69.208076 
L 713.692146 68.888836 
L 714.826773 68.330166 
L 716.528713 67.931116 
L 717.096026 67.731591 
L 717.66334 67.651781 
L 718.230653 67.372447 
L 718.797967 67.252732 
L 723.903787 65.177672 
L 724.471101 65.018052 
L 728.442294 63.182423 
L 729.009608 62.982898 
L 729.576921 62.903088 
L 731.846175 61.825653 
L 734.682742 60.508789 
L 735.817368 60.109739 
L 736.384682 59.630879 
L 736.951995 59.311639 
L 738.653935 58.752969 
L 739.788562 57.994774 
L 740.355876 57.954869 
L 741.490502 57.635629 
L 742.057816 57.515914 
L 744.327069 56.67791 
L 746.02901 56.159145 
L 746.596323 56.079335 
L 747.163636 55.8 
L 747.163636 55.8 
" clip-path="url(#p9f43931cf8)" style="fill: none; stroke: #1f77b4; stroke-width: 1.5; stroke-linecap: square"/>
   </g>
   <g id="line2d_38">
    <path d="M 139.003677 307.8 
L 140.705617 307.72019 
L 142.407557 307.680285 
L 145.811438 307.600475 
L 148.648005 307.48076 
L 150.917258 307.48076 
L 151.484572 307.32114 
L 153.753825 307.24133 
L 155.455765 307.041805 
L 157.157706 306.882185 
L 160.561586 306.722565 
L 161.128899 306.722565 
L 161.696213 306.60285 
L 163.965466 306.52304 
L 165.100093 306.44323 
L 169.6386 306.36342 
L 172.475167 306.243705 
L 179.282928 306.163895 
L 182.119495 306.044181 
L 185.523375 305.964371 
L 187.792629 305.884561 
L 192.89845 305.804751 
L 194.60039 305.764846 
L 196.30233 305.724941 
L 198.00427 305.525416 
L 201.40815 305.485511 
L 202.542777 305.405701 
L 206.513971 305.325891 
L 212.754418 304.966746 
L 216.725612 304.886936 
L 217.860239 304.807126 
L 219.562179 304.727316 
L 222.966059 304.567696 
L 225.235313 304.527791 
L 226.937253 304.368171 
L 234.312327 303.929216 
L 237.148894 303.849406 
L 242.254715 303.570071 
L 243.956655 303.490261 
L 249.629789 303.171021 
L 255.870236 303.091211 
L 258.13949 302.851781 
L 259.274117 302.771971 
L 266.649191 302.173397 
L 270.053071 301.734442 
L 272.322325 301.654632 
L 276.860832 301.056057 
L 280.264712 300.976247 
L 281.966653 300.816627 
L 283.101279 300.776722 
L 284.235906 300.657007 
L 285.937846 300.577197 
L 287.072473 300.417577 
L 289.90904 300.098337 
L 292.178294 300.018527 
L 293.31292 299.938717 
L 295.582174 299.858907 
L 296.716801 299.779097 
L 299.553368 299.499762 
L 300.120681 299.340143 
L 303.524562 299.180523 
L 306.361129 299.100713 
L 313.736203 298.661758 
L 315.438143 298.581948 
L 322.813217 298.142993 
L 326.784411 298.063183 
L 327.351724 297.943468 
L 331.890231 297.863658 
L 335.861425 297.664133 
L 342.101872 297.584323 
L 346.073066 297.384798 
L 350.611573 297.304988 
L 355.15008 297.065558 
L 359.121274 296.985748 
L 369.900229 296.307363 
L 374.438736 296.227553 
L 380.11187 295.908314 
L 381.246497 295.868409 
L 383.51575 295.628979 
L 389.188884 295.309739 
L 392.592765 295.229929 
L 394.294705 295.190024 
L 395.996645 295.150119 
L 397.698585 294.990499 
L 402.237092 294.910689 
L 403.371719 294.751069 
L 404.506346 294.671259 
L 407.342913 294.551544 
L 408.47754 294.471734 
L 409.612166 294.391924 
L 414.717987 294.312114 
L 415.852614 294.192399 
L 418.121867 294.152494 
L 418.689181 294.032779 
L 419.823808 293.952969 
L 420.391121 293.833254 
L 422.093061 293.753444 
L 427.198882 293.474109 
L 428.333508 293.434204 
L 430.035449 293.274584 
L 431.737389 293.234679 
L 433.439329 293.154869 
L 436.275896 293.035154 
L 444.218283 292.955344 
L 448.189477 292.755819 
L 452.727984 292.67601 
L 454.997238 292.5962 
L 457.266492 292.556295 
L 458.401118 292.43658 
L 460.670372 292.35677 
L 466.343506 292.03753 
L 469.747386 291.997625 
L 471.449326 291.838005 
L 473.151267 291.7981 
L 477.12246 291.71829 
L 479.391714 291.63848 
L 486.199475 291.55867 
L 489.036042 291.438955 
L 492.439922 291.359145 
L 494.141862 291.15962 
L 497.545743 291.119715 
L 499.247683 290.960095 
L 501.516936 290.880285 
L 508.324697 290.800475 
L 511.161264 290.68076 
L 520.805592 290.640855 
L 521.940219 290.561045 
L 523.642159 290.52114 
L 531.017233 290.44133 
L 532.15186 290.36152 
L 538.392307 290.28171 
L 540.661561 290.2019 
L 547.469321 290.161995 
L 548.603948 290.082185 
L 557.113649 290.04228 
L 558.815589 289.88266 
L 572.998424 289.80285 
L 574.700364 289.762945 
L 590.017826 289.683135 
L 592.28708 289.603325 
L 601.931407 289.523515 
L 603.066034 289.443705 
L 605.902601 289.363895 
L 607.604541 289.204276 
L 610.441108 289.124466 
L 612.710362 289.044656 
L 616.114242 288.964846 
L 617.816182 288.924941 
L 620.085436 288.845131 
L 621.787376 288.805226 
L 624.623943 288.725416 
L 625.75857 288.645606 
L 629.16245 288.565796 
L 631.999017 288.446081 
L 633.133644 288.406176 
L 634.268271 288.326366 
L 635.970211 288.286461 
L 638.239465 288.206651 
L 640.508718 288.126841 
L 647.883792 288.047031 
L 650.153046 287.967221 
L 654.691553 287.887411 
L 658.662747 287.687886 
L 663.768567 287.608076 
L 664.903194 287.528266 
L 675.114835 287.448456 
L 676.816775 287.408551 
L 679.653342 287.368646 
L 681.922596 287.129216 
L 683.624536 287.089311 
L 687.028417 287.009501 
L 692.70155 286.690261 
L 695.538117 286.610451 
L 697.807371 286.530641 
L 701.211251 286.490736 
L 702.345878 286.410926 
L 704.615132 286.331116 
L 706.884385 286.091686 
L 709.153639 286.011876 
L 713.124833 285.932067 
L 713.692146 285.812352 
L 718.797967 285.732542 
L 721.634534 285.612827 
L 729.009608 285.572922 
L 729.576921 285.453207 
L 732.980801 285.373397 
L 735.250055 285.293587 
L 738.653935 285.213777 
L 740.923189 285.133967 
L 747.163636 285.094062 
L 747.163636 285.094062 
" clip-path="url(#p9f43931cf8)" style="fill: none; stroke: #ff7f0e; stroke-width: 1.5; stroke-linecap: square"/>
   </g>
   <g id="patch_3">
    <path d="M 108 320.4 
L 108 43.2 
" style="fill: none; stroke: #a9a9a9; stroke-width: 0.8; stroke-linejoin: miter; stroke-linecap: square"/>
   </g>
   <g id="patch_4">
    <path d="M 777.6 320.4 
L 777.6 43.2 
" style="fill: none"/>
   </g>
   <g id="patch_5">
    <path d="M 108 320.4 
L 777.6 320.4 
" style="fill: none; stroke: #a9a9a9; stroke-width: 0.8; stroke-linejoin: miter; stroke-linecap: square"/>
   </g>
   <g id="patch_6">
    <path d="M 108 43.2 
L 777.6 43.2 
" style="fill: none"/>
   </g>
   <g id="text_19">
    <!-- get_subscribe history -->
    <g style="fill: #a9a9a9" transform="translate(378.6075 37.2) scale(0.12 -0.12)">
     <defs>
      <path id="DejaVuSans-67" d="M 2906 1791 
Q 2906 2416 2648 2759 
Q 2391 3103 1925 3103 
Q 1463 3103 1205 2759 
Q 947 2416 947 1791 
Q 947 1169 1205 825 
Q 1463 481 1925 481 
Q 2391 481 2648 825 
Q 2906 1169 2906 1791 
z
M 3481 434 
Q 3481 -459 3084 -895 
Q 2688 -1331 1869 -1331 
Q 1566 -1331 1297 -1286 
Q 1028 -1241 775 -1147 
L 775 -588 
Q 1028 -725 1275 -790 
Q 1522 -856 1778 -856 
Q 2344 -856 2625 -561 
Q 2906 -266 2906 331 
L 2906 616 
Q 2728 306 2450 153 
Q 2172 0 1784 0 
Q 1141 0 747 490 
Q 353 981 353 1791 
Q 353 2603 747 3093 
Q 1141 3584 1784 3584 
Q 2172 3584 2450 3431 
Q 2728 3278 2906 2969 
L 2906 3500 
L 3481 3500 
L 3481 434 
z
" transform="scale(0.015625)"/>
      <path id="DejaVuSans-65" d="M 3597 1894 
L 3597 1613 
L 953 1613 
Q 991 1019 1311 708 
Q 1631 397 2203 397 
Q 2534 397 2845 478 
Q 3156 559 3463 722 
L 3463 178 
Q 3153 47 2828 -22 
Q 2503 -91 2169 -91 
Q 1331 -91 842 396 
Q 353 884 353 1716 
Q 353 2575 817 3079 
Q 1281 3584 2069 3584 
Q 2775 3584 3186 3129 
Q 3597 2675 3597 1894 
z
M 3022 2063 
Q 3016 2534 2758 2815 
Q 2500 3097 2075 3097 
Q 1594 3097 1305 2825 
Q 1016 2553 972 2059 
L 3022 2063 
z
" transform="scale(0.015625)"/>
      <path id="DejaVuSans-74" d="M 1172 4494 
L 1172 3500 
L 2356 3500 
L 2356 3053 
L 1172 3053 
L 1172 1153 
Q 1172 725 1289 603 
Q 1406 481 1766 481 
L 2356 481 
L 2356 0 
L 1766 0 
Q 1100 0 847 248 
Q 594 497 594 1153 
L 594 3053 
L 172 3053 
L 172 3500 
L 594 3500 
L 594 4494 
L 1172 4494 
z
" transform="scale(0.015625)"/>
      <path id="DejaVuSans-5f" d="M 3263 -1063 
L 3263 -1509 
L -63 -1509 
L -63 -1063 
L 3263 -1063 
z
" transform="scale(0.015625)"/>
      <path id="DejaVuSans-73" d="M 2834 3397 
L 2834 2853 
Q 2591 2978 2328 3040 
Q 2066 3103 1784 3103 
Q 1356 3103 1142 2972 
Q 928 2841 928 2578 
Q 928 2378 1081 2264 
Q 1234 2150 1697 2047 
L 1894 2003 
Q 2506 1872 2764 1633 
Q 3022 1394 3022 966 
Q 3022 478 2636 193 
Q 2250 -91 1575 -91 
Q 1294 -91 989 -36 
Q 684 19 347 128 
L 347 722 
Q 666 556 975 473 
Q 1284 391 1588 391 
Q 1994 391 2212 530 
Q 2431 669 2431 922 
Q 2431 1156 2273 1281 
Q 2116 1406 1581 1522 
L 1381 1569 
Q 847 1681 609 1914 
Q 372 2147 372 2553 
Q 372 3047 722 3315 
Q 1072 3584 1716 3584 
Q 2034 3584 2315 3537 
Q 2597 3491 2834 3397 
z
" transform="scale(0.015625)"/>
      <path id="DejaVuSans-75" d="M 544 1381 
L 544 3500 
L 1119 3500 
L 1119 1403 
Q 1119 906 1312 657 
Q 1506 409 1894 409 
Q 2359 409 2629 706 
Q 2900 1003 2900 1516 
L 2900 3500 
L 3475 3500 
L 3475 0 
L 2900 0 
L 2900 538 
Q 2691 219 2414 64 
Q 2138 -91 1772 -91 
Q 1169 -91 856 284 
Q 544 659 544 1381 
z
M 1991 3584 
L 1991 3584 
z
" transform="scale(0.015625)"/>
      <path id="DejaVuSans-62" d="M 3116 1747 
Q 3116 2381 2855 2742 
Q 2594 3103 2138 3103 
Q 1681 3103 1420 2742 
Q 1159 2381 1159 1747 
Q 1159 1113 1420 752 
Q 1681 391 2138 391 
Q 2594 391 2855 752 
Q 3116 1113 3116 1747 
z
M 1159 2969 
Q 1341 3281 1617 3432 
Q 1894 3584 2278 3584 
Q 2916 3584 3314 3078 
Q 3713 2572 3713 1747 
Q 3713 922 3314 415 
Q 2916 -91 2278 -91 
Q 1894 -91 1617 61 
Q 1341 213 1159 525 
L 1159 0 
L 581 0 
L 581 4863 
L 1159 4863 
L 1159 2969 
z
" transform="scale(0.015625)"/>
      <path id="DejaVuSans-63" d="M 3122 3366 
L 3122 2828 
Q 2878 2963 2633 3030 
Q 2388 3097 2138 3097 
Q 1578 3097 1268 2742 
Q 959 2388 959 1747 
Q 959 1106 1268 751 
Q 1578 397 2138 397 
Q 2388 397 2633 464 
Q 2878 531 3122 666 
L 3122 134 
Q 2881 22 2623 -34 
Q 2366 -91 2075 -91 
Q 1284 -91 818 406 
Q 353 903 353 1747 
Q 353 2603 823 3093 
Q 1294 3584 2113 3584 
Q 2378 3584 2631 3529 
Q 2884 3475 3122 3366 
z
" transform="scale(0.015625)"/>
      <path id="DejaVuSans-72" d="M 2631 2963 
Q 2534 3019 2420 3045 
Q 2306 3072 2169 3072 
Q 1681 3072 1420 2755 
Q 1159 2438 1159 1844 
L 1159 0 
L 581 0 
L 581 3500 
L 1159 3500 
L 1159 2956 
Q 1341 3275 1631 3429 
Q 1922 3584 2338 3584 
Q 2397 3584 2469 3576 
Q 2541 3569 2628 3553 
L 2631 2963 
z
" transform="scale(0.015625)"/>
      <path id="DejaVuSans-69" d="M 603 3500 
L 1178 3500 
L 1178 0 
L 603 0 
L 603 3500 
z
M 603 4863 
L 1178 4863 
L 1178 4134 
L 603 4134 
L 603 4863 
z
" transform="scale(0.015625)"/>
      <path id="DejaVuSans-20" transform="scale(0.015625)"/>
      <path id="DejaVuSans-68" d="M 3513 2113 
L 3513 0 
L 2938 0 
L 2938 2094 
Q 2938 2591 2744 2837 
Q 2550 3084 2163 3084 
Q 1697 3084 1428 2787 
Q 1159 2491 1159 1978 
L 1159 0 
L 581 0 
L 581 4863 
L 1159 4863 
L 1159 2956 
Q 1366 3272 1645 3428 
Q 1925 3584 2291 3584 
Q 2894 3584 3203 3211 
Q 3513 2838 3513 2113 
z
" transform="scale(0.015625)"/>
      <path id="DejaVuSans-6f" d="M 1959 3097 
Q 1497 3097 1228 2736 
Q 959 2375 959 1747 
Q 959 1119 1226 758 
Q 1494 397 1959 397 
Q 2419 397 2687 759 
Q 2956 1122 2956 1747 
Q 2956 2369 2687 2733 
Q 2419 3097 1959 3097 
z
M 1959 3584 
Q 2709 3584 3137 3096 
Q 3566 2609 3566 1747 
Q 3566 888 3137 398 
Q 2709 -91 1959 -91 
Q 1206 -91 779 398 
Q 353 888 353 1747 
Q 353 2609 779 3096 
Q 1206 3584 1959 3584 
z
" transform="scale(0.015625)"/>
      <path id="DejaVuSans-79" d="M 2059 -325 
Q 1816 -950 1584 -1140 
Q 1353 -1331 966 -1331 
L 506 -1331 
L 506 -850 
L 844 -850 
Q 1081 -850 1212 -737 
Q 1344 -625 1503 -206 
L 1606 56 
L 191 3500 
L 800 3500 
L 1894 763 
L 2988 3500 
L 3597 3500 
L 2059 -325 
z
" transform="scale(0.015625)"/>
     </defs>
     <use xlink:href="#DejaVuSans-67"/>
     <use xlink:href="#DejaVuSans-65" x="63.476562"/>
     <use xlink:href="#DejaVuSans-74" x="125"/>
     <use xlink:href="#DejaVuSans-5f" x="164.208984"/>
     <use xlink:href="#DejaVuSans-73" x="214.208984"/>
     <use xlink:href="#DejaVuSans-75" x="266.308594"/>
     <use xlink:href="#DejaVuSans-62" x="329.6875"/>
     <use xlink:href="#DejaVuSans-73" x="393.164062"/>
     <use xlink:href="#DejaVuSans-63" x="445.263672"/>
     <use xlink:href="#DejaVuSans-72" x="500.244141"/>
     <use xlink:href="#DejaVuSans-69" x="541.357422"/>
     <use xlink:href="#DejaVuSans-62" x="569.140625"/>
     <use xlink:href="#DejaVuSans-65" x="632.617188"/>
     <use xlink:href="#DejaVuSans-20" x="694.140625"/>
     <use xlink:href="#DejaVuSans-68" x="725.927734"/>
     <use xlink:href="#DejaVuSans-69" x="789.306641"/>
     <use xlink:href="#DejaVuSans-73" x="817.089844"/>
     <use xlink:href="#DejaVuSans-74" x="869.189453"/>
     <use xlink:href="#DejaVuSans-6f" x="908.398438"/>
     <use xlink:href="#DejaVuSans-72" x="969.580078"/>
     <use xlink:href="#DejaVuSans-79" x="1010.693359"/>
    </g>
   </g>
   <g id="legend_1">
    <g id="line2d_39">
     <path d="M 815.08 328.498438 
L 825.08 328.498438 
L 835.08 328.498438 
" style="fill: none; stroke: #1f77b4; stroke-width: 1.5; stroke-linecap: square"/>
    </g>
    <g id="text_20">
     <!-- star -->
     <g style="fill: #a9a9a9" transform="translate(843.08 331.998438) scale(0.1 -0.1)">
      <defs>
       <path id="DejaVuSans-61" d="M 2194 1759 
Q 1497 1759 1228 1600 
Q 959 1441 959 1056 
Q 959 750 1161 570 
Q 1363 391 1709 391 
Q 2188 391 2477 730 
Q 2766 1069 2766 1631 
L 2766 1759 
L 2194 1759 
z
M 3341 1997 
L 3341 0 
L 2766 0 
L 2766 531 
Q 2569 213 2275 61 
Q 1981 -91 1556 -91 
Q 1019 -91 701 211 
Q 384 513 384 1019 
Q 384 1609 779 1909 
Q 1175 2209 1959 2209 
L 2766 2209 
L 2766 2266 
Q 2766 2663 2505 2880 
Q 2244 3097 1772 3097 
Q 1472 3097 1187 3025 
Q 903 2953 641 2809 
L 641 3341 
Q 956 3463 1253 3523 
Q 1550 3584 1831 3584 
Q 2591 3584 2966 3190 
Q 3341 2797 3341 1997 
z
" transform="scale(0.015625)"/>
      </defs>
      <use xlink:href="#DejaVuSans-73"/>
      <use xlink:href="#DejaVuSans-74" x="52.099609"/>
      <use xlink:href="#DejaVuSans-61" x="91.308594"/>
      <use xlink:href="#DejaVuSans-72" x="152.587891"/>
     </g>
    </g>
    <g id="line2d_40">
     <path d="M 815.08 343.176562 
L 825.08 343.176562 
L 835.08 343.176562 
" style="fill: none; stroke: #ff7f0e; stroke-width: 1.5; stroke-linecap: square"/>
    </g>
    <g id="text_21">
     <!-- fork -->
     <g style="fill: #a9a9a9" transform="translate(843.08 346.676562) scale(0.1 -0.1)">
      <defs>
       <path id="DejaVuSans-66" d="M 2375 4863 
L 2375 4384 
L 1825 4384 
Q 1516 4384 1395 4259 
Q 1275 4134 1275 3809 
L 1275 3500 
L 2222 3500 
L 2222 3053 
L 1275 3053 
L 1275 0 
L 697 0 
L 697 3053 
L 147 3053 
L 147 3500 
L 697 3500 
L 697 3744 
Q 697 4328 969 4595 
Q 1241 4863 1831 4863 
L 2375 4863 
z
" transform="scale(0.015625)"/>
       <path id="DejaVuSans-6b" d="M 581 4863 
L 1159 4863 
L 1159 1991 
L 2875 3500 
L 3609 3500 
L 1753 1863 
L 3688 0 
L 2938 0 
L 1159 1709 
L 1159 0 
L 581 0 
L 581 4863 
z
" transform="scale(0.015625)"/>
      </defs>
      <use xlink:href="#DejaVuSans-66"/>
      <use xlink:href="#DejaVuSans-6f" x="35.205078"/>
      <use xlink:href="#DejaVuSans-72" x="96.386719"/>
      <use xlink:href="#DejaVuSans-6b" x="137.5"/>
     </g>
    </g>
   </g>
  </g>
 </g>
 <defs>
  <clipPath id="p9f43931cf8">
   <rect x="108" y="43.2" width="669.6" height="277.2"/>
  </clipPath>
 </defs>
</svg>
